<svg width="72" height="68" viewBox="0 0 72 68" fill="none" xmlns="http://www.w3.org/2000/svg">
<g clip-path="url(#clip0_362_4754)">
<path d="M71.9744 33.4849C71.9572 37.0503 71.5754 40.6434 70.7327 44.192C69.7541 48.3125 67.7604 51.8835 65.0649 55.0871C61.9757 58.7587 58.3625 61.8387 54.3999 64.5102C53.1396 65.3598 51.7766 66.0201 50.2586 66.2449C49.8582 66.3042 49.1202 66.2474 49.0669 66.0765C48.9043 65.5554 49.3821 65.2407 49.8063 64.9608C51.3894 63.9165 53.0075 62.9175 54.5281 61.7868C62.3901 55.9408 66.5774 48.0492 67.3791 38.2816C67.801 33.1424 67.3921 28.0927 65.9435 23.1357C64.2579 17.3676 61.07 12.743 55.9275 9.53536C53.3608 7.9343 50.7941 6.35022 47.941 5.31482C45.9749 4.60132 43.9339 4.22027 41.8429 4.15668C41.4472 4.14463 40.8866 4.01905 40.7971 4.61558C40.7123 5.18125 41.1636 5.46931 41.6327 5.59378C42.1793 5.73892 42.7488 5.85786 43.3112 5.87163C45.1618 5.91702 46.8835 6.45206 48.5507 7.19533C51.6598 8.58139 54.5659 10.3043 57.1059 12.6C61.2297 16.3274 63.5759 20.9964 64.3816 26.495C64.8733 29.8506 65.0631 33.2201 65.0275 36.6066C64.9705 42.0131 63.1687 46.8472 60.4075 51.4237C55.0817 60.2505 47.1121 65.0704 37.281 67.1599C31.3272 68.4253 25.4376 68.3189 19.6001 66.4475C13.6122 64.5279 9.00626 60.8537 5.76558 55.4761C5.13662 54.4325 4.8719 53.165 4.45765 51.9941C4.39211 51.809 4.35934 51.5633 4.42598 51.3902C4.54923 51.0696 4.69314 50.647 4.95016 50.5238C5.15508 50.4255 5.62546 50.6268 5.8299 50.8393C6.33708 51.3663 6.77946 51.9612 7.21279 52.5548C9.34814 55.4796 11.7289 58.1831 14.7034 60.2564C18.718 63.0549 23.2378 64.5422 28.0768 65.0725C28.4771 65.1164 28.8985 65.1024 29.2916 65.0228C29.5036 64.9799 29.6764 64.7409 29.8669 64.5904C29.6859 64.4292 29.5259 64.1674 29.3203 64.1241C28.2646 63.9013 27.1984 63.728 26.1338 63.5501C23.6011 63.1266 21.3124 62.0877 19.1305 60.7696C16.3053 59.0629 13.6764 57.0987 11.4035 54.6897C7.95143 51.0309 5.96195 46.6893 5.7459 41.6317C5.59734 38.1548 5.47543 34.6603 5.65224 31.1896C5.89385 26.4462 7.7152 22.2122 10.4677 18.3749C13.6005 14.0073 17.7336 10.9691 22.6948 9.01828C23.8324 8.57094 24.9569 8.08903 26.0767 7.59802C26.2498 7.52214 26.3643 7.3107 26.5059 7.162C26.3024 7.07123 26.0713 6.86582 25.9 6.90776C24.5778 7.23162 23.2182 7.47921 21.9606 7.97981C11.972 11.9557 6.03568 19.3202 4.12385 29.9267C3.74052 32.0532 3.7025 34.2428 3.51016 36.4038C3.47067 36.8468 3.5603 37.3945 3.02756 37.5561C2.47771 37.7231 2.01405 37.3254 1.85155 36.8856C1.55199 36.0749 1.31833 35.2129 1.22858 34.3543C0.26178 25.0966 3.63244 17.5071 10.1689 11.1828C13.8423 7.62865 18.234 5.23537 22.9793 3.47503C28.795 1.31753 34.8082 -0.0660688 41.0064 0.00256378C47.3693 0.0730413 53.4514 1.58652 58.844 5.18432C63.3553 8.19432 66.4699 12.411 68.6762 17.3191C71.0413 22.5805 72.1896 27.1433 71.9744 33.4849ZM19.2496 38.7415L19.2481 38.741C19.369 39.1359 19.5591 39.268 20.2127 39.1983C22.404 38.9647 24.2467 38.0496 25.5119 36.1893C27.0363 33.9479 26.1314 31.3016 23.559 30.4614C21.6969 29.8532 19.9356 30.2171 18.2995 31.2368C18.0349 31.4017 17.758 31.6683 17.6598 31.9491C17.5503 32.262 17.5206 32.7199 17.6796 32.9725C17.7993 33.1629 18.2692 33.1413 18.587 33.1885C18.693 33.2042 18.8105 33.141 19.0076 33.0933C16.907 36.1355 15.6383 39.4453 14.8149 42.9341C14.6057 43.8204 14.548 44.7513 14.5137 45.6652C14.5044 45.913 14.787 46.2962 15.0245 46.3901C15.2191 46.4671 15.6369 46.2801 15.7953 46.081C16.1599 45.6224 16.4939 45.114 16.7211 44.5749C17.4596 42.8222 18.1396 41.0445 18.8572 39.2825C18.9389 39.0819 19.1165 38.9209 19.2496 38.7415ZM47.695 25.1175C50.5049 25.1175 53.1113 25.1137 55.7177 25.1201C56.4093 25.1218 56.8969 24.8195 57.1059 24.2452C57.3466 23.5836 56.9324 23.2226 56.4745 22.9434C55.78 22.52 55.0525 22.1491 54.3271 21.7795C51.5714 20.3749 48.6193 19.5012 45.6825 18.5941C45.137 18.4256 44.8776 18.1399 44.7611 17.6074C44.5205 16.5081 44.2594 15.4128 43.9793 14.3229C43.7818 13.555 43.4499 13.3511 42.6871 13.5039C38.6554 14.3113 34.6278 15.1395 30.5917 15.9248C29.9983 16.0403 29.5953 16.2987 29.2747 16.7911C28.4941 17.99 27.6761 19.1645 26.9045 20.369C26.6149 20.821 26.2599 21.1163 25.7594 21.3124C22.049 22.7666 18.524 24.5885 15.191 26.7824C14.8678 26.9951 14.5217 27.1974 14.2636 27.4769C14.0819 27.6737 13.8784 28.0655 13.96 28.2401C14.0688 28.4729 14.4312 28.6131 14.7112 28.7268C14.8636 28.7886 15.0725 28.7244 15.2532 28.6981C17.61 28.3547 19.963 27.9821 22.3235 27.6675C26.9844 27.0464 31.6402 26.3625 36.3161 25.8836C40.1615 25.4897 44.033 25.3546 47.695 25.1175ZM29.5832 49.3038C29.5248 50.1831 29.4333 51.0748 29.419 51.9679C29.4113 52.4482 29.5727 52.9087 30.1187 53.0746C30.6578 53.2384 31.1241 53.0487 31.4116 52.62C31.7127 52.1712 31.9749 51.6617 32.1081 51.1411C32.3405 50.2314 32.4827 49.296 32.6193 48.3649C32.6866 47.9061 32.8337 47.5712 33.27 47.3488C33.6104 47.1754 33.9301 46.9327 34.2029 46.6634C34.3669 46.5013 34.4236 46.2289 34.5285 46.0061C34.2861 45.9804 34.04 45.9162 33.8027 45.9404C33.5906 45.962 33.3885 46.0811 33.0803 46.1946C33.165 45.7683 33.2238 45.4336 33.299 45.1027C33.5027 44.2045 33.7473 43.3138 33.9002 42.4073C33.9451 42.1416 33.7379 41.8329 33.6461 41.5438C33.3625 41.6486 33.0041 41.6789 32.8118 41.8745C32.4744 42.2176 32.1766 42.6327 31.9731 43.0699C31.4392 44.2171 30.9709 45.3951 30.4607 46.5538C30.3778 46.742 30.2432 47.0022 30.0835 47.0452C29.1671 47.292 28.236 47.4835 27.2351 47.7107C27.6895 46.3214 28.1278 45.0472 28.5159 43.7576C28.6492 43.3148 28.7163 42.8322 28.7059 42.3704C28.6939 41.8379 28.2693 41.6409 27.8648 41.9849C27.4667 42.3236 27.0709 42.718 26.8202 43.1699C25.9786 44.6868 25.1869 46.2325 24.4126 47.7856C24.2377 48.1363 24.0481 48.2933 23.6616 48.375C22.9717 48.5206 22.2609 48.6853 21.6378 49.0002C20.9031 49.3714 20.9277 50.0666 21.6583 50.4589C22.113 50.7032 22.6434 50.8047 23.201 50.9907C23.1422 51.2143 23.0444 51.4825 23.0035 51.7593C22.8429 52.8474 22.6614 53.935 22.5686 55.0297C22.5281 55.5063 22.7479 55.971 23.2746 56.137C23.7927 56.3002 24.2892 56.1607 24.5917 55.7334C24.928 55.2585 25.2311 54.7279 25.4052 54.1759C25.7493 53.0848 25.9818 51.9587 26.2919 50.8559C26.3486 50.6539 26.5185 50.4006 26.6976 50.331C27.6595 49.9569 28.6409 49.6333 29.5832 49.3035V49.3038ZM41.42 36.0326C41.9766 35.4659 42.4468 34.9888 42.9152 34.5101C43.3867 34.0282 43.8672 33.5545 44.3237 33.0587C44.6547 32.6992 44.9982 32.338 45.2566 31.9268C45.7431 31.1523 45.4587 30.4353 44.5728 30.2496C44.107 30.1519 43.6006 30.1689 43.123 30.2248C41.8107 30.3785 40.5078 30.6271 39.1929 30.7393C38.6808 30.7829 38.2506 30.7785 38.0956 31.3526C37.9561 31.8695 38.2579 32.4439 38.8423 32.5864C39.3445 32.7089 39.8864 32.7077 40.4089 32.6936C40.9546 32.6789 41.4982 32.5836 42.2105 32.505C41.8693 32.792 41.6679 32.9597 41.4682 33.1296C40.5045 33.9496 39.5045 34.7315 38.5931 35.6066C38.1195 36.0615 37.7239 36.6431 37.4357 37.2375C37.1125 37.9039 37.4953 38.3025 38.22 38.1897C38.7622 38.1053 39.3077 38.0155 39.8544 37.992C40.8714 37.9483 41.8929 37.9904 42.9078 37.9242C44.0579 37.849 45.1721 37.6202 46.0236 36.7209C46.0991 36.641 46.2758 36.5958 46.3861 36.6209C47.4338 36.8587 48.3625 36.5219 49.2449 36.017C49.7889 35.7056 50.299 35.3342 50.8183 34.9937C51.7856 35.7407 52.8143 35.6101 53.8482 35.2499C54.2422 35.1127 54.7995 34.953 54.6787 34.4498C54.6155 34.1867 54.0837 33.9463 53.7254 33.8643C52.8484 33.6635 52.7146 33.4955 52.9846 32.6068C53.1391 32.0983 53.3347 31.5979 53.438 31.079C53.5885 30.3234 53.1736 29.9638 52.4361 30.1489C52.3212 30.1778 52.1978 30.1933 52.0798 30.1869C49.6882 30.0564 47.836 31.1406 46.2924 32.8469C45.5109 33.7109 45.0256 34.7129 45.4607 35.9725C44.1366 36.5604 42.8347 36.1454 41.4204 36.0326H41.42ZM34.5667 34.374C33.2511 35.629 31.9211 36.8621 30.6366 38.141C30.136 38.6394 29.6969 39.2143 29.3072 39.806C29.0562 40.1872 29.0047 40.6661 29.3499 41.0681C29.6826 41.4555 30.0972 41.378 30.5341 41.2755C31.5239 41.043 32.512 40.7413 33.5169 40.6506C35.0547 40.512 36.6059 40.5134 38.152 40.4816C39.8178 40.4474 41.4653 40.3427 42.8471 39.2579C43.0388 39.1075 43.0773 38.7597 43.1869 38.5032C42.9169 38.4605 42.6407 38.3582 42.3779 38.3856C41.333 38.4944 40.2859 38.7907 39.2513 38.7456C37.374 38.6639 35.5119 38.2358 33.4778 38.6068C33.6679 38.4068 33.7491 38.324 33.8275 38.2387C34.9185 37.0499 36.0323 35.8809 37.0861 34.6597C37.4073 34.2875 37.6394 33.7933 37.7767 33.3156C37.9676 32.6515 37.5865 32.2169 36.9018 32.27C35.0552 32.4128 33.209 32.5693 31.3686 32.7739C31.1084 32.8028 30.7401 33.0931 30.6778 33.3303C30.6149 33.5693 30.7959 33.9908 31.0066 34.1553C31.2732 34.3634 31.6766 34.4771 32.0231 34.4819C32.852 34.4934 33.6821 34.4174 34.5667 34.374ZM44.4282 44.2197C43.6969 46.1523 43.2579 48.0969 43.4675 50.1432C43.5081 50.5396 43.4767 51.0896 43.9737 51.1139C44.1839 51.1242 44.5096 50.6222 44.6304 50.2959C45.3834 48.2627 46.1005 46.2159 46.8106 44.167C46.9437 43.783 47.1626 43.5835 47.5433 43.4405C48.9726 42.9032 50.3868 42.325 51.8035 41.754C52.086 41.6402 52.3714 41.5159 52.6218 41.3462C52.7481 41.2606 52.7989 41.0623 52.8838 40.9151C52.7298 40.8404 52.5789 40.7131 52.4209 40.7036C52.182 40.6893 51.9351 40.7418 51.6972 40.7923C50.4681 41.0536 49.2409 41.3233 47.9726 41.5989C48.1763 41.0522 48.3893 40.5691 48.5332 40.0659C48.6458 39.6721 48.6067 39.1955 48.1627 39.09C47.8844 39.024 47.449 39.1948 47.2285 39.4095C46.8395 39.7884 46.4644 40.2407 46.2544 40.7358C45.7054 42.0304 44.811 42.5428 43.4341 42.299C42.9643 42.2159 42.5799 42.4624 42.4739 42.956C42.3632 43.4712 42.69 43.7794 43.1229 43.9284C43.5216 44.0655 43.9495 44.117 44.4283 44.2199L44.4282 44.2197ZM37.1213 47.6327C37.159 46.8658 37.2896 46.1257 37.2093 45.4097C37.0745 44.2078 35.785 43.7421 34.8598 44.5206C34.7451 44.6172 34.7047 45.0318 34.7423 45.0489C35.461 45.3762 35.1029 45.877 34.9822 46.347C34.7898 47.0968 34.5078 47.8418 34.449 48.6033C34.3647 49.6927 35.1486 50.3042 36.2173 50.1405C37.086 50.0074 37.7616 49.5234 38.3728 48.9391C38.8097 48.5214 39.2069 48.0617 39.6526 47.5881C39.8003 48.5237 40.2714 49.1987 41.0327 49.6368C41.2277 49.749 41.5948 49.7754 41.7579 49.6611C41.899 49.562 41.8967 49.2076 41.8969 48.9659C41.8971 48.6637 41.7848 48.3572 41.8094 48.0598C41.885 47.1421 42 46.2277 42.1055 45.3126C42.1501 44.9262 42.279 44.5344 42.2415 44.1579C42.2067 43.8095 42.0949 43.3387 41.8491 43.1715C41.4579 42.9052 41.1493 43.3101 40.9153 43.6229C40.7077 43.9004 40.5283 44.1996 40.3427 44.4933C39.5184 45.7972 38.401 46.7931 37.1213 47.6327ZM25.481 39.2296C25.6139 39.9646 25.7508 40.6211 26.2973 41.0998C26.7957 41.5363 27.4589 41.3378 27.6151 40.7714C27.7917 40.1313 28.0047 39.4973 28.2554 38.8828C28.7324 37.7138 29.3268 36.5866 29.7144 35.3902C29.9171 34.7642 29.8171 34.0266 29.781 33.3434C29.7716 33.1654 29.5151 32.9177 29.3242 32.8586C29.17 32.8109 28.8604 32.9431 28.7626 33.091C27.8874 34.4161 26.9959 35.7349 26.2123 37.1147C25.8505 37.7518 25.7177 38.5207 25.481 39.2296ZM28.548 30.8552C28.5356 31.8374 29.1722 32.2935 29.8604 31.9535C30.1939 31.7888 30.517 31.5219 30.7377 31.2215C31.3999 30.3202 32.0257 29.3902 32.6269 28.4463C32.7585 28.2399 32.7292 27.9299 32.7741 27.6676C32.5067 27.6451 32.2108 27.5363 31.9765 27.6144C30.7094 28.0363 29.6476 28.7672 28.9325 29.9239C28.7245 30.2604 28.6245 30.6645 28.548 30.8552Z" fill="white"/>
<path d="M0.068472 42.8607C0.117992 42.4762 0.144403 42.087 0.222167 41.7083C0.354587 41.0632 0.67934 40.5558 1.37372 40.4289C2.0917 40.2976 2.7785 40.4669 3.13528 41.1187C3.47031 41.7307 3.72145 42.4287 3.83064 43.1176C4.02909 44.3684 4.10037 45.6398 4.21372 46.9036C4.27363 47.5722 3.8293 48.0189 3.16548 47.9246C1.92516 47.7482 0.944791 47.18 0.609034 45.8834C0.353853 44.8981 0.199302 43.8863 0 42.8864C0.0228648 42.8778 0.0456072 42.8692 0.068472 42.8604V42.8607Z" fill="white"/>
<path d="M50.8074 32.0689C50.4483 33.4167 49.5731 34.1216 48.1011 34.2484C48.3333 33.2382 49.5033 32.2959 50.8074 32.0689Z" fill="white"/>
<path d="M19.2496 38.7415C19.2747 38.508 19.2613 38.2622 19.3312 38.0433C19.8767 36.3371 20.4383 34.6361 21.033 32.8169C21.7156 32.818 22.5434 32.9399 23.2099 33.551C23.8758 34.1614 23.8852 35.203 23.2421 36.0671C22.5511 36.9957 21.6006 37.5798 20.5498 38.0115C20.249 38.1351 19.9272 38.2122 19.6378 38.3567C19.4827 38.4342 19.376 38.6097 19.2477 38.741L19.2496 38.7415Z" fill="white"/>
</g>
<defs>
<clipPath id="clip0_362_4754">
<rect width="72" height="68" fill="white"/>
</clipPath>
</defs>
</svg>
