<svg width="153" height="26" viewBox="0 0 153 26" fill="none" xmlns="http://www.w3.org/2000/svg">
<g clip-path="url(#clip0_507_1698)">
<path d="M25.7213 12.8166C25.7151 14.0863 25.5786 15.3659 25.2775 16.6297C24.9278 18.0972 24.2153 19.3689 23.252 20.5098C22.1481 21.8174 20.8568 22.9142 19.4407 23.8656C18.9903 24.1682 18.5032 24.4034 17.9607 24.4834C17.8177 24.5045 17.5539 24.4843 17.5349 24.4235C17.4768 24.2379 17.6475 24.1258 17.7991 24.0261C18.3649 23.6542 18.9431 23.2984 19.4865 22.8957C22.2961 20.8138 23.7925 18.0034 24.0791 14.5248C24.2298 12.6946 24.0837 10.8963 23.566 9.13093C22.9636 7.07674 21.8244 5.42979 19.9866 4.28745C19.0694 3.71726 18.1521 3.15312 17.1325 2.78439C16.4299 2.53029 15.7005 2.39458 14.9532 2.37194C14.8118 2.36765 14.6115 2.32292 14.5795 2.53537C14.5492 2.73682 14.7105 2.8394 14.8781 2.88373C15.0735 2.93542 15.277 2.97778 15.478 2.98268C16.1393 2.99885 16.7546 3.18939 17.3504 3.45409C18.4615 3.94771 19.5 4.5613 20.4077 5.37885C21.8815 6.7063 22.7199 8.36906 23.0079 10.3273C23.1836 11.5223 23.2514 12.7223 23.2387 13.9283C23.2183 15.8537 22.5744 17.5753 21.5876 19.2052C19.6844 22.3486 16.8363 24.0652 13.323 24.8093C11.1953 25.2599 9.09054 25.222 7.00442 24.5556C4.86456 23.8719 3.21854 22.5635 2.06043 20.6483C1.83566 20.2767 1.74106 19.8253 1.59301 19.4083C1.56959 19.3424 1.55788 19.2549 1.5817 19.1932C1.62574 19.0791 1.67717 18.9285 1.76902 18.8847C1.84225 18.8497 2.01035 18.9214 2.08341 18.997C2.26466 19.1847 2.42275 19.3966 2.57761 19.608C3.34071 20.6496 4.19151 21.6124 5.2545 22.3507C6.6892 23.3474 8.30441 23.877 10.0337 24.0659C10.1768 24.0815 10.3274 24.0765 10.4678 24.0482C10.5436 24.0329 10.6053 23.9478 10.6734 23.8942C10.6088 23.8368 10.5516 23.7436 10.4781 23.7281C10.1008 23.6488 9.71981 23.5871 9.33935 23.5237C8.43423 23.3729 7.61634 23.0029 6.83659 22.5335C5.82695 21.9257 4.8875 21.2262 4.07524 20.3683C2.84158 19.0653 2.1306 17.5191 2.05339 15.7179C2.0003 14.4797 1.95674 13.2352 2.01992 11.9992C2.10626 10.3099 2.75716 8.80206 3.74079 7.43549C4.86036 5.88004 6.33741 4.79806 8.11036 4.1033C8.51691 3.94399 8.91878 3.77237 9.31894 3.5975C9.38082 3.57048 9.42171 3.49518 9.47231 3.44222C9.3996 3.4099 9.31702 3.33674 9.2558 3.35168C8.78328 3.46702 8.29742 3.55519 7.84797 3.73347C4.27838 5.1494 2.15695 7.77211 1.47372 11.5494C1.33674 12.3067 1.32315 13.0865 1.25442 13.8561C1.2403 14.0139 1.27233 14.2089 1.08195 14.2665C0.885449 14.3259 0.719755 14.1843 0.661683 14.0277C0.554629 13.739 0.471126 13.432 0.439054 13.1262C0.0935516 9.82928 1.29811 7.12641 3.63404 4.87415C4.94679 3.60841 6.51621 2.75609 8.21204 2.12918C10.2904 1.36083 12.4393 0.86809 14.6543 0.892532C16.9282 0.917631 19.1018 1.45663 21.0289 2.73791C22.6411 3.80986 23.7541 5.31156 24.5426 7.05948C25.3878 8.9332 25.7982 10.5582 25.7213 12.8166Z" fill="#C8102E"/>
<path d="M0.0244696 16.1556C0.0421664 16.0187 0.0516047 15.8801 0.0793951 15.7452C0.126718 15.5155 0.242773 15.3348 0.490921 15.2896C0.747503 15.2428 0.992941 15.3031 1.12045 15.5352C1.24017 15.7532 1.32992 16.0018 1.36894 16.2471C1.43986 16.6925 1.46534 17.1453 1.50584 17.5954C1.52725 17.8335 1.36846 17.9926 1.13124 17.959C0.687989 17.8962 0.337637 17.6938 0.217648 17.2321C0.126455 16.8812 0.071224 16.5209 0 16.1647C0.0081711 16.1617 0.0162985 16.1586 0.0244696 16.1555V16.1556Z" fill="#C8102E"/>
<path d="M17.2219 14.3768C15.9133 14.4612 14.5297 14.5093 13.1555 14.6496C11.4844 14.8202 9.82068 15.0637 8.155 15.2849C7.31141 15.397 6.47057 15.5296 5.62834 15.6519C5.56375 15.6613 5.48908 15.6842 5.43463 15.6621C5.33457 15.6217 5.20505 15.5717 5.16617 15.4888C5.13702 15.4267 5.20973 15.2871 5.27466 15.217C5.36686 15.1175 5.49061 15.0455 5.60609 14.9697C6.7972 14.1884 8.0569 13.5396 9.38289 13.0216C9.56174 12.9518 9.68863 12.8466 9.7921 12.6857C10.0679 12.2567 10.3602 11.8384 10.6391 11.4115C10.7537 11.2362 10.8977 11.1441 11.1098 11.103C12.5521 10.8233 13.9915 10.5284 15.4323 10.2408C15.7048 10.1864 15.8235 10.2591 15.8941 10.5325C15.9942 10.9206 16.0875 11.3107 16.1735 11.7022C16.2151 11.8918 16.3078 11.9936 16.5028 12.0536C17.5522 12.3766 18.6072 12.6878 19.592 13.188C19.8512 13.3197 20.1113 13.4517 20.3594 13.6025C20.5231 13.702 20.6711 13.8305 20.5851 14.0661C20.5104 14.2706 20.3361 14.3783 20.089 14.3777C19.1576 14.3754 18.2261 14.3768 17.2219 14.3768Z" fill="white"/>
</g>
<path fill-rule="evenodd" clip-rule="evenodd" d="M42.9075 1.34619C40.2855 2.14534 39.4359 4.84653 41.8066 4.84653C42.6688 4.84653 42.5316 5.20524 40.7809 7.52401C37.1938 12.275 33.1067 22.2786 33.9033 24.3557C34.2893 25.3607 35.4012 25.168 36.5753 23.8921C37.7074 22.6621 43.5805 11.1081 45.0163 7.28739C45.8791 4.99133 45.9356 4.94743 47.3891 5.45397C48.2079 5.73953 49.2311 6.51245 49.663 7.17185C51.3193 9.69949 49.1584 12.2715 44.3352 13.5136C42.2713 14.0454 42.1835 14.1347 43.0739 14.7951C45.0279 16.2441 51.4605 14.2492 53.1502 11.6701C54.4362 9.70756 54.635 6.70618 53.5957 4.94643C51.846 1.98491 46.6046 0.219095 42.9075 1.34619ZM113.539 2.08278C112.969 2.48236 111.335 4.62959 109.907 6.85451C107.502 10.6041 107.187 10.9007 105.605 10.9007C102.119 10.9007 101.232 12.2261 103.69 13.7634C104.453 14.2412 105.152 14.6796 105.243 14.7391C105.333 14.7981 105.021 16.2249 104.548 17.9095C103.748 20.7605 103.746 21.0612 104.521 22.2433C104.979 22.9421 105.566 23.5137 105.826 23.5137C106.77 23.5137 108.294 21.3347 109.379 18.4352C109.988 16.8056 110.745 15.2673 111.061 15.0161C111.893 14.3562 116.608 13.7356 116.237 14.335C116.072 14.6019 115.897 15.8884 115.848 17.1936C115.764 19.3893 116.314 20.4523 117.545 20.479C118.478 20.4992 119.903 18.128 120.677 15.2678C121.404 12.5848 121.757 12.0248 123.017 11.5485C124.709 10.9098 125.002 9.89171 123.493 9.89171C122.265 9.89171 122.244 9.44016 123.328 6.38884C125.235 1.01825 122.261 1.56111 119.384 7.10828C117.758 10.2449 117.675 10.3165 115.436 10.5173C114.179 10.6303 113.054 10.6475 112.936 10.5557C112.818 10.4638 113.329 8.90992 114.071 7.10324C115.996 2.41375 115.794 0.503643 113.539 2.08278ZM59.5722 3.31078C57.2867 4.70426 56.0844 6.64362 56.8982 7.6239C57.2428 8.03861 57.873 8.37815 58.2993 8.37815C59.2019 8.37815 63.4549 3.91317 63.4549 2.96569C63.4549 2.01064 61.4056 2.19277 59.5722 3.31078ZM143.016 5.57556C142.588 6.00389 141.757 6.96551 141.17 7.71169C140.266 8.85997 139.762 9.05168 137.894 8.95482C135.26 8.8186 134.462 9.67123 136.032 10.9426C136.635 11.431 137.369 11.9103 137.663 12.0087C138.002 12.1217 137.815 13.16 137.152 14.842C135.961 17.8631 135.684 23.2231 136.736 22.8992C137.083 22.7922 137.987 21.3543 138.745 19.7036C142.131 12.3311 142.215 12.2291 145.487 11.4799C151.249 10.1611 152.25 9.84832 152.25 9.36751C152.25 9.10012 150.539 8.88267 148.432 8.88267C144.702 8.88267 144.623 8.85644 144.976 7.74751C145.575 5.86868 145.482 5.14621 144.617 4.96661C144.166 4.87277 143.445 5.14672 143.016 5.57556ZM76.194 7.74095C72.6236 7.88978 72.0317 8.04063 72.0317 8.80195C72.0317 10.3155 73.1341 10.8997 76.0427 10.928L78.8427 10.9547L77.1259 12.3154C73.2623 15.3763 71.0227 17.6376 71.0227 18.4776C71.0227 19.8206 81.0505 20.4432 83.8496 19.2737C84.9096 18.8308 86.5528 18.4685 87.5013 18.4685C88.4498 18.4685 90.1278 18.0084 91.2307 17.4453C92.7488 16.6709 93.4712 16.5483 94.2043 16.9408C95.2865 17.52 97.2657 17.6184 98.4776 17.1532C99.7762 16.6548 99.3917 15.5806 97.7041 14.9924C96.2657 14.4909 96.1598 14.3047 96.4585 12.7987C97.2001 9.05572 97.2541 9.14906 94.2552 8.97903C89.0017 8.68086 84.1402 11.9163 84.1402 15.7113V17.4595L81.7437 17.4242C77.2131 17.3571 77.1309 17.014 80.825 13.6055C83.8698 10.7968 84.9086 8.88973 83.7618 8.21519C82.9667 7.747 80.2019 7.57345 76.194 7.74095ZM54.3736 12.6817C51.5085 16.1619 50.5766 18.6284 51.3879 20.5865C51.9535 21.9522 53.8691 22.6247 53.8691 21.4578C53.8691 21.1591 54.7793 19.3832 55.8922 17.5104C58.0768 13.8325 58.7932 10.2918 57.4007 10.0537C56.9845 9.98252 55.6223 11.1651 54.3736 12.6817ZM60.1085 10.6419C59.6196 11.9148 60.6973 12.6146 63.5937 12.9062L66.2298 13.1711L62.0655 16.6235C58.1151 19.8983 56.8594 21.7252 57.6631 23.0258C57.9108 23.4259 59.0793 23.498 61.452 23.2599C63.354 23.0687 67.3206 23.1842 70.3497 23.5182C76.4231 24.1882 79.6707 23.6252 80.0137 21.8432C80.1656 21.0547 79.9486 20.9744 78.4311 21.2595C76.6874 21.5864 66.0865 20.1586 65.3348 19.4957C65.1204 19.306 66.033 18.2334 67.3634 17.1119C70.0429 14.8521 72.0423 11.6989 71.2588 10.9673C70.9904 10.7166 68.4431 10.3538 65.5986 10.1611C61.0585 9.85336 60.3885 9.91239 60.1085 10.6419ZM92.8481 12.4708C92.5974 13.4299 90.0501 14.9369 88.6793 14.9369C87.6435 14.9369 89.1082 13.0823 90.8033 12.2468C92.9728 11.1777 93.1806 11.2004 92.8481 12.4708ZM123.329 12.7463C123.146 12.9289 123.218 13.3451 123.489 13.6716C123.819 14.0696 123.625 15.1079 122.897 16.8319C121.866 19.2712 121.854 19.4644 122.664 20.7C123.944 22.653 127.527 22.1631 129.519 19.7631C130.327 18.7894 131.06 18.7415 131.06 19.6617C131.06 20.6768 133.096 23.0874 133.764 22.8644C134.081 22.7584 134.269 21.983 134.182 21.1414C134.096 20.2994 134.388 18.2102 134.832 16.4989C135.275 14.787 135.503 13.168 135.338 12.9007C134.777 11.993 133.655 12.4092 132.575 13.9258C131.658 15.2134 127.794 17.964 126.902 17.964C126.744 17.964 126.737 17.0579 126.886 15.951C127.053 14.7033 126.915 13.6478 126.524 13.1761C125.882 12.4027 123.935 12.1408 123.329 12.7463Z" fill="#231F20"/>
<defs>
<clipPath id="clip0_507_1698">
<rect width="25.7304" height="24.2168" fill="white" transform="translate(0 0.891571)"/>
</clipPath>
</defs>
</svg>
