<svg width="1440" height="268" viewBox="0 0 1440 268" fill="none" xmlns="http://www.w3.org/2000/svg">
<g clip-path="url(#clip0_6159_114839)">
<rect width="1440" height="268" fill="#8E0005"/>
<path d="M167.051 250.397C167.051 250.397 169.628 238.143 182.125 230.497C194.621 222.85 214.022 215.209 216.285 208.018C216.285 208.018 216.103 240.637 195.411 252.574C174.719 264.512 164.436 264.32 164.436 264.32L167.046 250.397H167.051Z" fill="#DB3339"/>
<path d="M213.937 245.806C214.225 246.169 214.593 245.8 214.412 245.506C214.07 244.96 213.606 245.388 213.937 245.806ZM240.222 236.201C240.963 235.933 241.694 236.522 241.321 236.918C240.579 237.71 239.469 236.474 240.222 236.201ZM224.294 175.126C223.584 176.051 223.478 175.714 222.667 174.526C222.064 172.477 224.988 174.216 224.294 175.126ZM223.408 241.359C223.307 241.166 223.68 241.059 223.819 241.225C223.862 241.273 223.776 241.429 223.723 241.637C223.563 241.503 223.451 241.445 223.408 241.359ZM127.88 285.825C127.32 285.921 126.92 285.306 127.325 285.07C128.249 284.551 128.937 285.643 127.88 285.825ZM212.395 249.755C212.304 249.038 213.43 249.567 212.811 249.979C212.662 250.081 212.416 249.947 212.395 249.755ZM209.775 249.846C209.476 249.856 209.434 249.369 209.775 249.268C210.175 249.145 210.143 249.835 209.775 249.846ZM168.588 259.151C168.812 259.295 168.982 259.365 169.089 259.488C169.292 259.729 168.251 260.344 168.588 259.151ZM158.124 288.912C158.071 288.805 158.124 288.645 158.14 288.409C158.353 288.5 158.514 288.522 158.599 288.618C158.754 288.789 158.3 289.266 158.124 288.912ZM153.551 272.084C153.695 272.571 152.996 272.667 152.884 272.223C152.756 271.72 153.439 271.704 153.551 272.084ZM111.115 245.822C110.747 244.971 111.371 245.206 111.467 244.077C111.542 243.2 112.732 243.505 112.385 244.136C112.145 244.564 111.777 244.596 112.284 244.885C113.879 245.784 111.766 247.325 111.12 245.822H111.115ZM145.297 254.726C145.217 254.886 145.19 255.014 145.115 255.079C144.784 255.368 144.496 254.651 144.912 254.613C145.014 254.602 145.126 254.672 145.297 254.726ZM197.07 306.33C197.391 306.891 196.467 307.416 196.291 306.8C196.174 306.383 196.804 305.869 197.07 306.33ZM139.683 306.945C138.867 306.276 139.39 304.89 140.254 306.212C140.585 307.089 140.041 307.239 139.683 306.945ZM156.15 271.485C156.854 271.206 157.708 272.426 156.945 272.4C156.577 272.389 155.958 271.913 156.15 271.485ZM150.568 298.576C150.462 297.688 152.228 297.254 152.009 297.929C151.678 298.929 150.648 299.234 150.568 298.576ZM237.559 227.591C237.303 227.179 237.996 226.665 238.343 227.168C238.701 227.687 237.879 228.11 237.559 227.591ZM134.588 272.223C135.521 272.164 134.556 273.486 133.862 273.422C133.061 273.352 133.68 272.282 134.588 272.223ZM210.688 282.716C210.511 282.962 209.588 282.695 210.101 281.999C210.245 282.037 210.437 282.042 210.57 282.133C210.773 282.272 210.81 282.55 210.693 282.711L210.688 282.716ZM229.886 247.946C229.753 248.032 229.635 247.962 229.598 247.823C229.576 247.753 229.635 247.657 229.683 247.491C229.822 247.593 230.19 247.753 229.891 247.951L229.886 247.946ZM179.681 272.089C180.108 272.913 179.041 273.769 178.907 273.143C178.731 272.341 179.451 271.65 179.681 272.089ZM164.532 286.815C164.41 286.761 164.287 286.708 164.095 286.628C164.191 286.472 164.26 286.114 164.634 286.537C164.666 286.574 164.57 286.719 164.532 286.815ZM177.178 296.254C177.008 296.709 177.12 296.602 176.639 296.511C176.89 296.056 176.751 296.104 177.178 296.254ZM227.837 252.671C228.189 252.735 227.906 253.473 227.357 253.415C227.015 253.377 227.287 252.574 227.837 252.671ZM246.544 257.652C244.666 257.722 244.656 255.822 245.835 255.919C247.212 256.026 247.665 257.61 246.544 257.652ZM230.772 271.506C230.681 270.928 231.022 270.949 230.601 270.436C230.217 269.97 230.841 269.403 231.183 269.676C231.545 269.97 231.231 270.404 231.22 270.634C231.183 271.308 231.513 271.404 231.919 271.945C232.415 272.603 230.937 272.523 230.777 271.506H230.772ZM182.061 276.536C181.644 277.52 181.228 276.493 181.687 276.439C181.789 276.429 181.901 276.488 182.061 276.536ZM245.109 271.281C244.341 271.65 244.197 271.543 244.362 272.228C244.394 272.362 244.394 272.469 244.373 272.56C244.175 272.635 243.973 272.705 243.781 272.785C243.781 272.785 243.775 272.785 243.775 272.779C242.996 271.822 242.889 271.517 243.028 271.324C243.722 270.345 243.162 269.408 243.93 269.676C245.605 270.259 245.531 271.083 245.114 271.281H245.109ZM149.469 214.77C148.845 214.476 148.925 213.229 149.832 214.166C149.901 214.578 149.843 214.947 149.469 214.77ZM171.192 226.286C171.843 226.58 172.083 226.05 172.392 226.489C172.52 226.665 172.141 226.965 172.051 226.89C171.506 226.462 170.877 227.201 170.781 226.735C170.733 226.505 170.903 226.157 171.192 226.291V226.286ZM231.7 220.186C232.18 220.357 232.218 220.683 232.074 220.999C231.786 221.652 230.99 220.694 231.7 220.186ZM111.761 280.014C112.401 279.95 112.807 280.495 112.47 280.715C111.595 281.277 110.838 280.11 111.761 280.014ZM153.685 260.349C153.658 260.328 153.711 260.194 153.749 260.039C153.882 260.109 153.999 260.141 154.063 260.216C154.106 260.264 154.031 260.606 153.69 260.344L153.685 260.349ZM150.867 260.628C151.982 260.328 151.609 262.185 150.835 261.382C150.568 261.109 150.51 260.724 150.867 260.628ZM176.784 243.82C177.333 244.077 176.997 244.356 176.858 244.388C176.485 244.479 176.303 244.008 176.784 243.82ZM156.731 259.504C156.929 260.039 156.208 260.312 156.075 259.804C155.947 259.311 156.571 259.076 156.731 259.504ZM181.847 234.146C182.199 233.804 182.584 235.147 181.97 234.981C181.639 234.895 181.522 234.462 181.847 234.146ZM115.112 263.464C116.125 264.277 117.401 266.481 116.109 266.332C115.341 266.246 113.852 265.684 114.066 264.989C114.306 264.223 114.605 263.057 115.112 263.464ZM126.904 229.55C127.229 229.014 128.179 229.073 128.179 229.924C128.179 231.69 126.258 230.614 126.904 229.55ZM185.417 255.598C184.707 255.539 184.467 254.624 185.652 254.281C186.74 253.966 186.543 255.694 185.417 255.598ZM114.808 297.522C115.314 297.04 115.768 297.683 115.997 297.934C117.054 300.256 113.762 298.517 114.808 297.522ZM187.498 292C188.261 291.673 188.25 293.509 187.204 292.915C187.028 292.605 187.183 292.134 187.498 292ZM140.388 288.056C140.991 287.853 141.578 288.875 140.889 289.201C140.222 289.517 139.827 288.244 140.388 288.056ZM219.006 266.931C219.145 266.915 219.289 266.974 219.524 267.022C219.428 267.22 219.396 267.391 219.294 267.461C218.926 267.718 218.681 266.968 219.006 266.931ZM163.647 264.919C163.561 265.08 163.529 265.208 163.449 265.278C163.102 265.599 162.814 264.882 163.246 264.828C163.353 264.817 163.471 264.876 163.647 264.919ZM173.326 259.424C173.427 259.386 173.545 259.413 173.758 259.408C173.379 260.264 173 259.547 173.326 259.424ZM168.518 254.795C168.428 254.897 168.369 255.004 168.283 255.047C168.246 255.068 168.075 254.945 168.086 254.907C168.166 254.485 168.321 254.667 168.524 254.795H168.518ZM172.958 211.378C172.536 210.586 173.689 209.992 174.126 210.747C174.51 211.41 173.337 212.095 172.958 211.378ZM164.628 309.353C164.362 308.663 165.856 308.475 165.333 309.406C165.269 309.524 164.772 309.727 164.628 309.353ZM150.003 243.863C150.019 243.226 150.019 242.595 150.131 242.247C150.584 240.861 152.217 241.461 152.121 242.274C151.993 243.333 151.123 243.028 151.401 243.692C151.582 244.125 151.79 244.489 151.203 244.709C150.504 244.971 149.982 244.607 149.998 243.863H150.003ZM199.616 225.734C200.245 226.339 199.482 226.382 199.477 226.023C199.477 225.948 199.546 225.874 199.616 225.734ZM217.027 219.452C217.395 219.752 217.395 219.602 217.192 220.009C216.797 219.795 216.872 219.918 217.027 219.452ZM165.215 275.23C165.333 274.69 166.224 274.428 166.645 275.005C167.366 276.006 165.071 275.888 165.215 275.23ZM163.951 252.756C163.775 253.313 163.481 253.382 163.214 253.158C162.67 252.698 164.186 252.029 163.951 252.756ZM238.685 209.655C239.08 209.858 239.032 209.692 239.16 210.281C239.17 210.34 238.621 210.436 238.562 210.04C238.546 209.939 238.626 209.815 238.679 209.655H238.685ZM216.792 197.888C217.603 197.482 218.088 198.252 217.672 198.434C216.984 198.734 216.397 198.07 216.792 197.888ZM247.388 245.265C247.553 246.517 246.352 246.448 246.352 245.64C246.352 245.222 247.035 244.484 247.388 245.265ZM268 209.43C267.733 210.409 267.504 210.388 267.733 210.757C267.851 210.939 267.077 211.881 267.146 209.575C267.168 208.943 267.899 209.387 268 209.43ZM209.22 233.236C209.215 233.097 209.284 232.958 209.338 232.749C210.314 233.247 209.242 233.627 209.22 233.236ZM205.229 234.933C205.176 235.034 205.149 235.168 205.064 235.222C204.919 235.323 204.701 235.248 204.685 235.104C204.674 235.007 204.749 234.9 204.813 234.729C204.989 234.815 205.106 234.874 205.224 234.933H205.229ZM213.361 231.562C213.82 231.305 213.974 232.161 213.494 232.321C213.121 232.444 212.95 231.792 213.361 231.562ZM262.483 232.172C262.056 231.444 261.197 231.508 261.49 230.855C261.72 230.331 262.397 230.561 262.387 230.952C262.371 231.717 262.856 231.524 262.851 231.915C262.851 232.225 262.509 232.214 262.483 232.172ZM160.077 257.599C160.344 258.016 159.661 258.444 159.405 257.915C159.197 257.487 159.826 257.203 160.077 257.599ZM221.466 223.963C221.226 224.102 221.231 223.305 221.685 223.225C221.786 223.209 222.517 223.364 221.466 223.963ZM223.744 218.243C223.819 217.489 224.657 217.655 224.619 218.329C224.582 219.073 223.654 219.163 223.744 218.243ZM203.719 229.116C203.121 229.261 203.249 228.019 203.65 228.324C203.98 228.576 203.938 229.063 203.719 229.116ZM191.548 207.911C190.614 208.638 189.702 203.806 191.633 207.103C191.825 207.429 191.863 207.664 191.548 207.911ZM159.527 221.662C159.367 221.406 159.821 220.983 160.173 221.058C161.005 221.24 159.896 222.251 159.527 221.662ZM190.95 244.559C190.385 243.467 192.418 243.414 192.359 244.896C192.327 245.613 191.436 245.485 190.95 244.559ZM216.296 218.243C216.002 218.489 215.543 218.002 215.917 217.719C216.232 217.483 216.829 217.799 216.296 218.243ZM202.609 231.647C202.337 231.588 202.305 231.176 202.71 231.139C203.1 231.599 202.668 231.658 202.609 231.647ZM136.316 245.918C136.717 246.694 135.644 247.084 135.265 246.303C134.966 245.683 135.98 245.265 136.316 245.918ZM166.902 199.472C166.363 199.092 166.736 197.969 167.328 198.241C168.107 198.605 167.499 199.89 166.902 199.472ZM201.184 264.48C200.848 264.619 200.533 263.999 201.152 263.747C201.611 264.079 201.419 264.384 201.184 264.48ZM196.852 188.642C196.281 187.663 197.988 186.48 197.962 187.336C197.935 188.246 197.257 189.338 196.852 188.642ZM156.064 234.879C155.707 235.339 155.488 235.018 155.483 234.836C155.472 234.531 155.936 234.435 156.064 234.879Z" fill="#D93339"/>
<path d="M110.889 71.4018C108.853 74.5355 105.639 76.3691 102.447 74.5881C96.8509 71.4694 94.853 64.6159 95.0934 63.2557C95.4013 61.5498 95.9947 60.1971 96.7683 59.1375L80.0864 44.6414L49.4641 49.1052L59.1157 55.5154C63.1341 51.277 69.7137 48.7069 73.7321 50.4203C81.0704 53.554 84.7132 63.7968 78.4866 68.3733L117.694 94.3898C118.941 92.0827 120.999 90.6023 123.8 90.9254C130.801 91.737 135.72 97.8766 136.043 99.3646C137.027 103.926 135.465 107.075 132.881 108.946C128.209 120.654 113.42 157.552 111.738 160.197L119.068 158.003L145.102 101.146L110.889 71.4168V71.4018Z" fill="#A13137"/>
<path d="M118.16 107.473C115.809 103.55 115.764 97.9744 117.701 94.3822L78.4941 68.3658C78.0284 68.7039 77.5177 69.0196 76.9468 69.2901C68.8124 73.1377 59.9495 70.733 58.7552 69.5832C53.8581 64.8639 55.3753 59.4607 59.1233 55.5079L49.4716 49.0977C43.4028 56.4021 38.4756 66.6599 34.6525 76.7824C39.129 80.1867 41.1495 87.3483 38.3629 91.1283C36.0195 94.3071 31.9635 96.4263 28.2306 96.8546C25.8271 105.737 24.6403 112.02 24.6403 112.02L72.6956 149.534C73.5594 147.257 74.6334 145.656 75.2118 145.258C86.3581 137.487 94.9732 153.096 90.3464 159.371C89.7381 160.205 89.002 160.956 88.1908 161.633L97.0237 168.524L111.745 160.175C113.435 157.537 128.217 120.639 132.889 108.923C128.329 112.223 120.593 111.509 118.167 107.458L118.16 107.473ZM86.3055 102.055C100.374 92.2555 111.242 111.944 105.406 119.865C99.4798 127.906 84.8559 130.604 82.2196 121.398C79.6358 112.38 84.6456 103.212 86.3055 102.055ZM63.72 111.411C59.4162 117.25 48.7957 119.211 46.8729 112.523C44.9951 105.97 48.6379 99.312 49.8397 98.4703C60.0621 91.3462 67.9562 105.655 63.7125 111.411H63.72Z" fill="#E6BB95"/>
<path d="M144.899 84.0192C145.304 84.5303 145.823 84.0117 145.567 83.5984C145.086 82.8319 144.433 83.4331 144.899 84.0192ZM181.898 70.5301C182.942 70.1543 183.971 70.9809 183.445 71.537C182.401 72.6492 180.839 70.9133 181.898 70.5301ZM159.478 -15.2446C158.479 -13.9445 158.328 -14.4179 157.187 -16.0862C156.338 -18.9644 160.454 -16.5221 159.478 -15.2446ZM158.231 77.7744C158.088 77.5039 158.614 77.3536 158.809 77.5865C158.869 77.6542 158.749 77.8721 158.674 78.1652C158.449 77.9773 158.291 77.8946 158.231 77.7744ZM23.7615 140.223C22.9729 140.358 22.4096 139.494 22.9804 139.163C24.2798 138.434 25.2487 139.967 23.7615 140.223ZM142.728 89.5652C142.6 88.5582 144.185 89.3022 143.314 89.8808C143.104 90.0236 142.758 89.8358 142.728 89.5652ZM139.04 89.693C138.62 89.708 138.559 89.0241 139.04 88.8814C139.603 88.7085 139.558 89.6779 139.04 89.693ZM81.0628 102.761C81.3783 102.964 81.6187 103.062 81.7689 103.235C82.0543 103.573 80.5897 104.437 81.0628 102.761ZM66.3338 144.559C66.2587 144.409 66.3338 144.183 66.3563 143.853C66.6568 143.98 66.8821 144.01 67.0023 144.146C67.2201 144.386 66.5817 145.055 66.3338 144.559ZM59.8969 120.925C60.0997 121.609 59.1158 121.744 58.958 121.12C58.7778 120.414 59.7392 120.391 59.8969 120.925ZM0.162036 84.0418C-0.356222 82.8469 0.522554 83.1776 0.657752 81.5919C0.762906 80.3595 2.43786 80.7879 1.94964 81.6746C1.61165 82.2758 1.0934 82.3209 1.80694 82.7267C4.05273 83.9892 1.07837 86.1535 0.169543 84.0418H0.162036ZM48.2774 96.5465C48.1647 96.772 48.1272 96.9523 48.022 97.0425C47.5564 97.4483 47.1508 96.4413 47.7366 96.3887C47.8793 96.3737 48.037 96.4714 48.2774 96.5465ZM121.156 169.02C121.607 169.809 120.308 170.545 120.06 169.681C119.895 169.095 120.781 168.374 121.156 169.02ZM40.3758 169.884C39.2267 168.945 39.9627 166.998 41.1795 168.855C41.6452 170.087 40.8791 170.297 40.3758 169.884ZM63.5547 120.083C64.5462 119.692 65.7479 121.406 64.6739 121.368C64.1556 121.353 63.2843 120.684 63.5547 120.083ZM55.6983 158.131C55.548 156.883 58.0342 156.275 57.7262 157.222C57.2605 158.627 55.8109 159.055 55.6983 158.131ZM178.15 58.4387C177.789 57.86 178.766 57.1386 179.254 57.845C179.757 58.5739 178.6 59.1676 178.15 58.4387ZM33.2029 121.12C34.5173 121.037 33.1578 122.894 32.1814 122.803C31.0547 122.706 31.926 121.203 33.2029 121.12ZM140.324 135.857C140.077 136.202 138.777 135.827 139.498 134.85C139.701 134.902 139.971 134.91 140.159 135.038C140.445 135.233 140.497 135.624 140.332 135.849L140.324 135.857ZM167.349 87.0252C167.161 87.1454 166.996 87.0477 166.943 86.8523C166.913 86.7546 166.996 86.6194 167.064 86.3864C167.259 86.5292 167.777 86.7547 167.357 87.0327L167.349 87.0252ZM96.6782 120.932C97.2791 122.09 95.7769 123.292 95.5891 122.413C95.3412 121.285 96.3552 120.316 96.6782 120.932ZM75.3545 141.613C75.1817 141.538 75.009 141.463 74.7386 141.35C74.8738 141.132 74.9714 140.629 75.4972 141.222C75.5423 141.275 75.4071 141.478 75.3545 141.613ZM93.1555 154.869C92.9152 155.508 93.0729 155.358 92.3969 155.23C92.7499 154.591 92.5547 154.659 93.1555 154.869ZM164.465 93.6608C164.961 93.751 164.562 94.788 163.789 94.7054C163.308 94.6528 163.691 93.5255 164.465 93.6608ZM190.798 100.657C188.154 100.755 188.139 98.0871 189.799 98.2223C191.737 98.3726 192.376 100.597 190.798 100.657ZM168.596 120.113C168.468 119.302 168.949 119.332 168.356 118.61C167.815 117.956 168.693 117.16 169.174 117.543C169.685 117.956 169.242 118.565 169.227 118.888C169.174 119.835 169.64 119.97 170.211 120.729C170.909 121.654 168.829 121.541 168.603 120.113H168.596ZM100.028 127.177C99.4422 128.56 98.8564 127.117 99.5023 127.042C99.645 127.027 99.8027 127.109 100.028 127.177ZM188.778 119.798C187.696 120.316 187.494 120.166 187.726 121.128C187.771 121.316 187.771 121.466 187.741 121.594C187.463 121.699 187.178 121.796 186.908 121.909C186.908 121.909 186.9 121.909 186.9 121.902C185.804 120.557 185.653 120.128 185.849 119.858C186.825 118.482 186.036 117.167 187.118 117.543C189.476 118.362 189.371 119.519 188.785 119.798H188.778ZM54.151 40.433C53.2722 40.0197 53.3849 38.2688 54.6617 39.5839C54.7594 40.1625 54.6768 40.681 54.151 40.433ZM84.7282 56.605C85.6445 57.0183 85.9825 56.2744 86.4182 56.8906C86.5984 57.1386 86.0651 57.5594 85.9375 57.4542C85.1713 56.853 84.2851 57.8901 84.1499 57.2363C84.0823 56.9131 84.3226 56.4247 84.7282 56.6125V56.605ZM169.903 48.0381C170.579 48.2786 170.631 48.737 170.429 49.1803C170.023 50.0971 168.904 48.752 169.903 48.0381ZM1.07086 132.062C1.97218 131.972 2.54301 132.738 2.06982 133.046C0.83802 133.835 -0.228542 132.197 1.07086 132.062ZM60.0847 104.445C60.0471 104.415 60.1222 104.227 60.1748 104.009C60.3626 104.106 60.5278 104.152 60.6179 104.257C60.678 104.324 60.5729 104.805 60.0922 104.437L60.0847 104.445ZM56.1189 104.835C57.6887 104.415 57.1629 107.022 56.0738 105.895C55.6983 105.512 55.6156 104.971 56.1189 104.835ZM92.5997 81.2312C93.3734 81.5919 92.9002 81.9827 92.7049 82.0278C92.1791 82.1556 91.9237 81.4943 92.5997 81.2312ZM64.3734 103.257C64.6513 104.009 63.6374 104.392 63.4496 103.678C63.2693 102.987 64.1481 102.656 64.3734 103.257ZM99.7276 67.6444C100.223 67.1634 100.764 69.0496 99.9004 68.8167C99.4347 68.6964 99.2695 68.0877 99.7276 67.6444ZM5.78776 108.818C7.21484 109.961 9.00998 113.057 7.19232 112.846C6.11074 112.726 4.01517 111.937 4.31561 110.96C4.6536 109.885 5.07421 108.247 5.78776 108.818ZM22.387 61.1891C22.8452 60.4376 24.1822 60.5203 24.1822 61.7151C24.1822 64.195 21.4782 62.6845 22.387 61.1891ZM104.752 97.7714C103.754 97.6888 103.416 96.4037 105.083 95.9228C106.615 95.4794 106.337 97.9067 104.752 97.7714ZM5.35964 156.65C6.07318 155.974 6.71161 156.876 7.03458 157.229C8.52176 160.49 3.88748 158.048 5.35964 156.65ZM107.682 148.895C108.756 148.437 108.741 151.014 107.269 150.18C107.021 149.744 107.239 149.083 107.682 148.895ZM41.3673 143.357C42.216 143.071 43.0422 144.506 42.0733 144.965C41.1344 145.408 40.5786 143.62 41.3673 143.357ZM152.034 113.688C152.229 113.665 152.432 113.748 152.763 113.816C152.628 114.094 152.582 114.334 152.44 114.432C151.921 114.793 151.576 113.741 152.034 113.688ZM74.1077 110.862C73.9875 111.088 73.9424 111.268 73.8298 111.366C73.3415 111.817 72.936 110.81 73.5443 110.735C73.6946 110.72 73.8598 110.802 74.1077 110.862ZM87.7326 103.145C87.8753 103.092 88.0406 103.13 88.341 103.122C87.8077 104.324 87.2744 103.317 87.7326 103.145ZM80.9652 96.6442C80.8375 96.787 80.7549 96.9373 80.6347 96.9974C80.5821 97.0275 80.3418 96.8546 80.3568 96.802C80.4695 96.2084 80.6873 96.4638 80.9727 96.6442H80.9652ZM87.2143 35.6686C86.621 34.5564 88.2433 33.7223 88.8592 34.7819C89.4 35.7137 87.7476 36.6756 87.2143 35.6686ZM75.4897 173.266C75.1142 172.296 77.2172 172.033 76.4811 173.341C76.391 173.506 75.6925 173.792 75.4897 173.266ZM54.9021 81.2914C54.9246 80.3971 54.9246 79.5103 55.0823 79.0219C55.7208 77.0755 58.0191 77.9172 57.8839 79.0594C57.7037 80.5474 56.4794 80.119 56.87 81.0509C57.1253 81.6596 57.4183 82.1706 56.5921 82.4787C55.6081 82.8469 54.872 82.3359 54.8946 81.2914H54.9021ZM124.739 55.831C125.626 56.6802 124.551 56.7403 124.544 56.2368C124.544 56.1316 124.642 56.0264 124.739 55.831ZM149.248 47.0086C149.766 47.4294 149.766 47.219 149.48 47.7901C148.925 47.4895 149.03 47.6623 149.248 47.0086ZM76.3159 125.343C76.4811 124.584 77.7355 124.216 78.3289 125.028C79.3428 126.433 76.1131 126.268 76.3159 125.343ZM74.5358 93.781C74.2879 94.5626 73.8748 94.6603 73.4993 94.3447C72.7332 93.6984 74.8663 92.759 74.5358 93.781ZM179.735 33.2488C180.29 33.5344 180.223 33.3014 180.403 34.1281C180.418 34.2107 179.645 34.346 179.562 33.7899C179.539 33.6471 179.652 33.4743 179.727 33.2488H179.735ZM148.917 16.7236C150.059 16.1525 150.742 17.2347 150.156 17.4902C149.187 17.911 148.361 16.9791 148.917 16.7236ZM191.985 83.2602C192.218 85.0187 190.528 84.921 190.528 83.7863C190.528 83.2001 191.489 82.1631 191.985 83.2602ZM221 32.9332C220.624 34.3084 220.301 34.2784 220.624 34.7969C220.79 35.0524 219.701 36.375 219.798 33.1361C219.828 32.2494 220.857 32.8731 221 32.9332ZM138.259 66.3668C138.251 66.1715 138.349 65.9761 138.424 65.683C139.799 66.3819 138.289 66.9154 138.259 66.3668ZM132.641 68.749C132.566 68.8918 132.528 69.0797 132.408 69.1548C132.205 69.2976 131.897 69.1924 131.875 68.9895C131.86 68.8542 131.965 68.7039 132.055 68.4635C132.303 68.5837 132.468 68.6664 132.633 68.749H132.641ZM144.088 64.0147C144.733 63.654 144.951 64.8563 144.275 65.0818C143.75 65.2546 143.509 64.3378 144.088 64.0147ZM213.234 64.8714C212.633 63.8493 211.424 63.9395 211.837 63.0227C212.16 62.2863 213.113 62.6094 213.098 63.158C213.076 64.2326 213.759 63.9621 213.752 64.5107C213.752 64.9465 213.271 64.9315 213.234 64.8714ZM69.0828 100.582C69.4584 101.168 68.497 101.769 68.1364 101.025C67.8435 100.424 68.7298 100.026 69.0828 100.582ZM155.497 53.3436C155.159 53.539 155.166 52.4192 155.805 52.3065C155.947 52.284 156.976 52.5019 155.497 53.3436ZM158.704 45.3102C158.809 44.2506 159.988 44.4836 159.936 45.4304C159.883 46.475 158.576 46.6027 158.704 45.3102ZM130.515 60.5804C129.674 60.7833 129.854 59.0398 130.418 59.4682C130.883 59.8214 130.823 60.5052 130.515 60.5804ZM113.383 30.799C112.068 31.821 110.784 25.0351 113.503 29.6642C113.773 30.1226 113.826 30.4533 113.383 30.799ZM68.3092 50.1122C68.0839 49.7515 68.7223 49.1578 69.218 49.263C70.3897 49.5185 68.8274 50.9388 68.3092 50.1122ZM112.541 82.2683C111.745 80.7352 114.607 80.6601 114.524 82.7417C114.479 83.7487 113.225 83.5683 112.541 82.2683ZM148.219 45.3102C147.805 45.6559 147.16 44.972 147.685 44.5737C148.128 44.2431 148.97 44.6865 148.219 45.3102ZM128.953 64.1349C128.57 64.0523 128.525 63.4736 129.096 63.421C129.644 64.0673 129.036 64.15 128.953 64.1349ZM35.6364 84.1771C36.1997 85.2667 34.69 85.8153 34.1567 84.7181C33.7361 83.8464 35.1632 83.2602 35.6364 84.1771ZM78.6894 18.9481C77.9308 18.4145 78.4565 16.8364 79.2903 17.2196C80.3869 17.7306 79.5306 19.5342 78.6894 18.9481ZM126.947 110.246C126.474 110.441 126.031 109.57 126.902 109.217C127.548 109.683 127.278 110.111 126.947 110.246ZM120.849 3.73797C120.045 2.36275 122.448 0.701962 122.411 1.90434C122.373 3.18187 121.419 4.7149 120.849 3.73797ZM63.4346 68.6739C62.9313 69.3202 62.6234 68.8693 62.6159 68.6138C62.6008 68.1854 63.2543 68.0502 63.4346 68.6739Z" fill="#A03137"/>
<path d="M1178.38 45.1705C1178.38 45.1705 1170.07 44.5214 1167.71 46.8801C1165.35 49.2388 1138 73.1268 1128.97 84.9279C1123.35 92.2784 1125 100.686 1127.57 106.478C1123.6 106.818 1117.29 107.429 1115.54 108.009C1112.93 108.88 1118.08 111.11 1118.92 112.774C1119.76 114.438 1117.74 115.656 1120.06 117.245C1122.38 118.833 1126.04 119.871 1125.81 120.734C1125.57 121.6 1126.93 126.153 1128.51 122.865C1129.54 120.73 1130.87 116.121 1131.68 113.15C1131.74 113.208 1131.79 113.264 1131.84 113.308C1134.01 115.373 1142.25 116.394 1142.25 116.394C1142.25 116.394 1148.61 115.441 1154.07 111.359C1159.53 107.272 1197.65 70.4659 1197.65 70.4659L1178.39 45.1634L1178.38 45.1705Z" fill="#A13137"/>
<path d="M1166.7 70.4859C1168.78 72.1637 1181.05 82.5085 1195.67 72.0075C1206.21 65.5864 1199.23 46.4021 1186.93 41.6752C1174.76 36.9983 1148.98 56.1784 1166.7 70.4859Z" fill="#DB3339"/>
<path d="M1172.87 65.314C1173.29 64.8091 1176.42 62.7955 1173.87 58.9771C1172.32 56.2427 1167.01 56.8131 1165.81 59.8581C1164.62 62.872 1169.28 69.6118 1172.87 65.314Z" fill="white"/>
<path d="M1194.95 57.7125C1194.79 57.2873 1193.83 54.6979 1190.74 54.9576C1188.61 54.978 1188.35 59.635 1189.79 61.3999C1191.22 63.1648 1196.38 61.3542 1194.95 57.7106L1194.95 57.7125Z" fill="white"/>
<path d="M1187.14 47.4806C1186.94 46.9449 1187.23 44.3874 1183.37 44.7148C1180.72 44.7411 1178.49 48.3432 1180.28 50.5517C1182.06 52.7375 1188.93 52.0371 1187.14 47.4877L1187.14 47.4806Z" fill="white"/>
<path d="M1188.38 68.6278C1188.17 68.1083 1187.01 64.9481 1183.24 65.2662C1180.64 65.2941 1179.92 69.4686 1181.67 71.6251C1183.43 73.7816 1190.12 73.0763 1188.38 68.6278Z" fill="white"/>
<path d="M1184.51 58.9391C1184.4 58.6562 1183.77 56.9484 1181.73 57.119C1180.32 57.135 1179.93 59.3902 1180.88 60.561C1181.83 61.7317 1185.45 61.346 1184.51 58.9391Z" fill="white"/>
<path d="M1175.96 51.2546C1175.85 50.9718 1175.22 49.264 1173.18 49.4346C1171.77 49.4506 1171.38 51.7058 1172.33 52.8766C1173.27 54.0336 1176.9 53.6616 1175.96 51.2546Z" fill="white"/>
<path d="M1136.63 80.4068C1136.63 80.4068 1129.51 86.9617 1128.58 92.4812C1127.64 98.0033 1130.54 105.317 1133.87 107.514C1133.87 107.514 1129.83 99.3708 1130.67 94.4492C1131.52 89.5276 1131.9 86.7453 1136.63 80.4068Z" fill="white"/>
<path d="M1205.67 61.2377C1206.09 61.4085 1206.22 60.9165 1205.92 60.7535C1205.37 60.4536 1205.19 61.042 1205.67 61.2377ZM1211.4 52.8825C1211.22 52.7674 1211.48 52.4961 1211.68 52.5703C1211.74 52.5907 1211.74 52.764 1211.8 52.9674C1211.6 52.9308 1211.48 52.9347 1211.4 52.8825ZM1153.42 136.829C1153 137.181 1152.36 136.85 1152.59 136.454C1153.1 135.567 1154.22 136.164 1153.42 136.829ZM1206.32 65.3436C1205.89 64.7769 1207.1 64.6847 1206.78 65.3341C1206.71 65.4927 1206.43 65.4973 1206.32 65.3436ZM1204.18 66.6851C1203.93 66.8384 1203.66 66.4445 1203.89 66.1931C1204.17 65.8953 1204.48 66.4984 1204.18 66.6851ZM1174.33 94.4796C1174.59 94.4944 1174.77 94.4713 1174.92 94.5246C1175.2 94.6317 1174.64 95.6576 1174.33 94.4796ZM1180.21 124.865C1180.12 124.8 1180.08 124.637 1179.98 124.429C1180.2 124.404 1180.35 124.345 1180.47 124.385C1180.68 124.456 1180.54 125.081 1180.21 124.865ZM1168.12 112.745C1168.48 113.09 1167.94 113.509 1167.63 113.185C1167.28 112.819 1167.84 112.475 1168.12 112.745ZM1119.75 110.862C1119.02 110.316 1119.66 110.215 1119.19 109.207C1118.82 108.424 1119.96 108.11 1119.98 108.815C1119.99 109.295 1119.7 109.5 1120.27 109.501C1122.04 109.497 1121.03 111.828 1119.75 110.86L1119.75 110.862ZM1152.69 101.95C1152.7 102.125 1152.74 102.248 1152.71 102.338C1152.58 102.744 1151.99 102.273 1152.31 102.04C1152.39 101.982 1152.52 101.987 1152.69 101.95ZM1221.32 120.901C1221.87 121.225 1221.35 122.117 1220.9 121.678C1220.6 121.379 1220.87 120.638 1221.32 120.901ZM1173.67 149.114C1172.66 148.938 1172.41 147.506 1173.78 148.214C1174.49 148.802 1174.11 149.192 1173.67 149.114ZM1170 110.981C1170.45 110.404 1171.76 111.031 1171.11 111.376C1170.8 111.545 1170.05 111.438 1170 110.981ZM1178.65 136.737C1178.12 136.033 1179.39 134.812 1179.54 135.491C1179.75 136.503 1179.04 137.259 1178.65 136.737ZM1152.34 122.013C1153.09 121.512 1152.94 123.104 1152.32 123.384C1151.62 123.711 1151.61 122.501 1152.34 122.013ZM1221.1 94.2283C1221.07 94.5228 1220.17 94.7404 1220.25 93.9011C1220.39 93.8635 1220.56 93.7753 1220.71 93.7884C1220.95 93.809 1221.12 94.0279 1221.1 94.2212L1221.1 94.2283ZM1189.96 100.142C1190.72 100.638 1190.25 101.881 1189.83 101.413C1189.29 100.814 1189.55 99.8791 1189.96 100.142ZM1184.54 119.987C1184.41 120.001 1184.28 120.015 1184.08 120.039C1184.09 119.861 1183.97 119.522 1184.49 119.702C1184.53 119.718 1184.52 119.887 1184.54 119.987ZM1199.75 121.921C1199.83 122.391 1199.87 122.246 1199.42 122.4C1199.41 121.892 1199.32 122 1199.75 121.921ZM1194.14 102.779C1194.27 103.818 1193.42 103.144 1193.78 102.877C1193.86 102.819 1193.98 102.815 1194.14 102.779ZM1136.54 65.9221C1135.87 65.9728 1135.33 64.8728 1136.55 65.2323C1136.81 65.5496 1136.94 65.8922 1136.54 65.9221ZM1160.35 65.2443C1161.04 65.1808 1160.98 64.614 1161.46 64.8382C1161.65 64.9267 1161.48 65.3646 1161.37 65.3446C1160.7 65.2428 1160.54 66.1752 1160.23 65.8252C1160.08 65.6525 1160.05 65.274 1160.36 65.2489L1160.35 65.2443ZM1137.09 139.659C1137.6 139.296 1138.21 139.565 1138.03 139.914C1137.58 140.814 1136.37 140.187 1137.09 139.659ZM1162.47 102.691C1162.43 102.685 1162.41 102.546 1162.37 102.396C1162.51 102.39 1162.63 102.361 1162.72 102.394C1162.78 102.414 1162.88 102.742 1162.47 102.683L1162.47 102.691ZM1160.25 104.287C1161.03 103.494 1161.63 105.255 1160.59 104.945C1160.23 104.841 1160 104.541 1160.25 104.287ZM1173.64 77.4741C1174.23 77.4276 1174.09 77.8266 1173.99 77.9209C1173.72 78.1786 1173.34 77.8652 1173.64 77.4741ZM1164.6 100.501C1165.02 100.861 1164.56 101.441 1164.19 101.073C1163.85 100.715 1164.25 100.214 1164.6 100.501ZM1173.12 66.7948C1173.25 66.3334 1174.23 67.2914 1173.63 67.4462C1173.32 67.533 1173 67.2206 1173.12 66.7948ZM1131.76 123.953C1133.01 124.156 1135.16 125.418 1134 125.913C1133.32 126.211 1131.8 126.451 1131.64 125.756C1131.46 124.989 1131.14 123.851 1131.76 123.953ZM1124.95 89.3916C1124.96 88.779 1125.78 88.3709 1126.2 89.0952C1127.06 90.5984 1124.93 90.6096 1124.95 89.3916ZM1186.65 83.3348C1186.03 83.6271 1185.38 82.964 1186.2 82.1009C1186.95 81.3069 1187.64 82.8736 1186.65 83.3348ZM1148.25 153.094C1148.43 152.44 1149.13 152.768 1149.44 152.871C1151.47 154.338 1147.86 154.446 1148.25 153.094ZM1206.28 113.321C1206.76 112.675 1207.65 114.242 1206.48 114.241C1206.18 114.062 1206.08 113.586 1206.28 113.321ZM1164.97 132.694C1165.38 132.23 1166.37 132.817 1165.95 133.427C1165.55 134.017 1164.59 133.124 1164.97 132.694ZM1220.29 76.7764C1220.4 76.6958 1220.55 76.6764 1220.77 76.6041C1220.78 76.819 1220.84 76.9802 1220.79 77.0883C1220.61 77.4846 1220.04 76.9653 1220.29 76.7764ZM1173.04 101.774C1173.04 101.952 1173.08 102.077 1173.05 102.175C1172.92 102.615 1172.32 102.144 1172.66 101.89C1172.74 101.829 1172.87 101.823 1173.04 101.774ZM1178.42 92.4257C1178.49 92.3449 1178.6 92.3111 1178.78 92.2035C1178.88 93.1152 1178.21 92.6875 1178.42 92.4257ZM1172.13 90.805C1172.11 90.9353 1172.11 91.0548 1172.06 91.1324C1172.04 91.1686 1171.84 91.1462 1171.83 91.1092C1171.68 90.7107 1171.9 90.7909 1172.14 90.8024L1172.13 90.805ZM1154.5 51.701C1153.76 51.2302 1154.43 50.1685 1155.17 50.5997C1155.82 50.9792 1155.17 52.1286 1154.5 51.701ZM1195.7 139.128C1195.13 138.669 1196.29 137.789 1196.31 138.834C1196.32 138.965 1196 139.377 1195.7 139.128ZM1151.29 90.432C1150.99 89.8822 1150.68 89.3447 1150.6 88.9946C1150.3 87.5959 1151.95 87.3183 1152.27 88.057C1152.69 89.0208 1151.81 89.1807 1152.37 89.6117C1152.73 89.8932 1153.09 90.1026 1152.7 90.5725C1152.25 91.133 1151.63 91.0755 1151.28 90.4346L1151.29 90.432ZM1183.84 51.0607C1184.66 51.2716 1184.04 51.6762 1183.86 51.3736C1183.83 51.3098 1183.85 51.2126 1183.84 51.0607ZM1195.3 37.312C1195.75 37.3895 1195.68 37.262 1195.71 37.706C1195.28 37.7143 1195.4 37.783 1195.3 37.312ZM1179.42 109.795C1179.25 109.279 1179.86 108.626 1180.5 108.914C1181.59 109.418 1179.62 110.425 1179.42 109.795ZM1167.31 91.2732C1167.44 91.8319 1167.23 92.0327 1166.89 91.9701C1166.21 91.841 1167.15 90.5404 1167.31 91.2732ZM1184.5 19.0673C1184.98 18.3298 1185.77 18.7515 1185.51 19.1072C1185.08 19.6944 1184.26 19.4127 1184.5 19.0673ZM1195.55 52.8131C1195.48 52.6973 1195.47 52.5453 1195.41 52.3419C1196.47 52.2944 1195.76 53.1354 1195.55 52.8131ZM1193.05 56.1829C1193.05 56.2952 1193.1 56.4219 1193.05 56.5087C1192.98 56.6647 1192.76 56.7065 1192.68 56.5913C1192.62 56.5144 1192.63 56.3873 1192.6 56.2106C1192.79 56.1985 1192.92 56.192 1193.04 56.1855L1193.05 56.1829ZM1198.19 49.3895C1198.44 48.9494 1198.99 49.6036 1198.67 49.972C1198.42 50.257 1197.96 49.7836 1198.19 49.3895ZM1166.46 97.2649C1166.88 97.4915 1166.52 98.1854 1166.05 97.858C1165.66 97.594 1166.05 97.0488 1166.46 97.2649ZM1201.23 39.0102C1201.09 39.2445 1200.71 38.5632 1201.05 38.276C1201.12 38.2134 1201.81 37.9928 1201.23 39.0102ZM1200.32 33.0412C1200.01 32.3629 1200.79 32.0999 1201.09 32.6919C1201.43 33.3431 1200.7 33.8685 1200.32 33.0412ZM1188.93 51.9598C1188.5 52.3712 1188 51.2526 1188.48 51.3191C1188.88 51.3736 1189.08 51.8087 1188.93 51.9598ZM1168.33 39.7795C1167.91 40.8496 1164.77 37.1764 1168.01 39.0505C1168.33 39.2357 1168.48 39.4181 1168.33 39.7795ZM1148.33 66.9364C1148.07 66.795 1148.24 66.2163 1148.58 66.1102C1149.36 65.8634 1148.93 67.2599 1148.33 66.9364ZM1185.85 71.2674C1184.84 70.611 1186.51 69.5845 1187.19 70.8747C1187.52 71.5005 1186.71 71.8211 1185.85 71.2674ZM1194.09 36.6352C1193.97 36.9864 1193.35 36.7933 1193.52 36.3716C1193.67 36.0193 1194.32 35.9997 1194.09 36.6352ZM1189.24 54.65C1188.99 54.7312 1188.76 54.3959 1189.08 54.1683C1189.63 54.3721 1189.3 54.6308 1189.24 54.65ZM1140.86 98.7849C1141.57 99.2524 1140.87 100.102 1140.17 99.6201C1139.61 99.2358 1140.26 98.3914 1140.86 98.7849ZM1143.59 44.4875C1142.95 44.4241 1142.71 43.2872 1143.34 43.2338C1144.17 43.1677 1144.29 44.5544 1143.59 44.4875ZM1204.19 83.289C1203.98 83.5696 1203.41 83.1931 1203.8 82.6803C1204.35 82.7413 1204.34 83.0937 1204.19 83.289ZM1163.3 20.8167C1162.34 20.2585 1163.18 18.4279 1163.58 19.1697C1164.01 19.957 1163.98 21.2132 1163.3 20.8167ZM1151.94 79.859C1151.86 80.4232 1151.52 80.2555 1151.43 80.1032C1151.27 79.8486 1151.61 79.5427 1151.94 79.859Z" fill="#D93339"/>
<path d="M1316.39 41.4624C1327.05 41.4224 1334.87 44.4217 1334.48 59.0314C1334.25 68.0499 1325.08 77.2658 1314.42 77.3809C1303.42 77.4959 1295.07 68.9048 1294.91 59.9022C1294.75 50.8996 1302.71 41.5175 1316.38 41.4657L1316.39 41.4624Z" fill="#A13137"/>
<path d="M1316.14 43.9544C1326.8 43.9144 1334.62 46.9137 1334.24 61.5234C1334 70.5419 1324.83 79.7578 1314.17 79.8729C1303.17 79.9879 1294.83 71.3968 1294.66 62.3942C1294.5 53.3916 1302.47 44.0095 1316.14 43.9577L1316.14 43.9544Z" fill="#DB3339"/>
<path d="M1311.51 66.634C1311.51 66.634 1305 67.8201 1302.92 68.1779C1300.84 68.5373 1299.73 68.8779 1299.11 68.2162C1298.5 67.5546 1297.93 66.6311 1297.93 66.6311C1297.93 66.6311 1297.13 63.7529 1297.25 62.3749C1297.37 60.9969 1298.84 60.8493 1298.84 60.8493C1298.84 60.8493 1310.85 63.0682 1311.07 62.3585C1311.29 61.6487 1310.44 60.8969 1309.01 58.7663C1307.58 56.6356 1304.59 52.6895 1304.38 51.4185C1304.17 50.1509 1304.66 49.0392 1305.54 48.5743C1306.41 48.1061 1309.13 47.3777 1309.88 47.6066C1310.63 47.8355 1311.75 48.481 1311.75 48.481C1311.75 48.481 1313.22 60.62 1313.27 60.9197C1313.32 61.2194 1314.4 61.1841 1314.46 60.8007C1314.52 60.4174 1317.14 49.3061 1317.58 48.8065C1318.01 48.3069 1320.31 47.6215 1321.49 48.2614C1322.66 48.9013 1324.1 49.4398 1324.17 50.2668C1324.23 51.0938 1322.83 53.1329 1322.83 53.1329C1322.83 53.1329 1318.27 60.0384 1318.51 60.6967C1318.75 61.3549 1326.5 53.8278 1327.69 53.1009C1328.89 52.3739 1329.95 52.269 1330.72 53.6309C1331.48 54.9927 1332.07 59.108 1332.07 59.108L1331.7 62.1038C1331.7 62.1038 1320.6 63.3693 1319.92 64.2727C1319.24 65.176 1328.05 67.8566 1327.79 69.0958C1327.54 70.3351 1325.73 72.8675 1323.52 73.6221C1321.3 74.3766 1320.66 73.2263 1320.33 72.5019C1320 71.7741 1317.9 66.9965 1317.9 66.9965C1317.9 66.9965 1317.14 67.0591 1317.02 68.0582C1316.9 69.0573 1318.31 75.5902 1318.31 75.5902C1318.31 75.5902 1317.86 76.4694 1317.07 76.4744C1316.29 76.4794 1313.84 77.2532 1312.3 76.7259C1310.76 76.1967 1311.75 74.1269 1312.13 72.269C1312.51 70.411 1313.96 68.4448 1313.36 68.4279C1312.75 68.411 1309.6 73.7329 1308.5 73.9999C1307.39 74.267 1305.16 74.0324 1304.17 73.1453C1303.18 72.2582 1304.27 71.3888 1306.2 70.2084C1308.13 69.028 1311.51 66.6422 1311.51 66.6422L1311.51 66.634Z" fill="#E6BB95"/>
<path d="M1298.91 54.9513C1298.86 54.6434 1298.54 54.7716 1298.55 55.0062C1298.58 55.4427 1298.97 55.3045 1298.91 54.9513ZM1281 53.6264C1280.5 53.5868 1280.26 53.0149 1280.59 52.8714C1281.26 52.5831 1281.51 53.6656 1281 53.6264ZM1271.37 96.2606C1272.06 95.8797 1272.02 96.1203 1272.12 97.0893C1271.83 98.539 1270.7 96.636 1271.37 96.2606ZM1292.16 55.0902C1292.16 55.239 1291.91 55.2017 1291.88 55.0593C1291.87 55.0173 1291.97 54.944 1292.06 54.8284C1292.11 54.9567 1292.16 55.0248 1292.16 55.0902ZM1360.19 53.9284C1360.54 54.0244 1360.58 54.5208 1360.27 54.555C1359.59 54.6221 1359.53 53.7475 1360.19 53.9284ZM1301 52.912C1300.83 53.3856 1300.35 52.7404 1300.83 52.6554C1300.95 52.6334 1301.05 52.7856 1301 52.912ZM1302.52 53.5858C1302.69 53.6625 1302.57 53.9789 1302.34 53.9472C1302.08 53.9125 1302.31 53.4898 1302.52 53.5858ZM1328.83 59.2547C1328.75 59.1019 1328.67 59.0108 1328.65 58.904C1328.61 58.6969 1329.39 58.6023 1328.83 59.2547ZM1343.9 43.5624C1343.9 43.6442 1343.82 43.7297 1343.74 43.8725C1343.65 43.756 1343.56 43.698 1343.54 43.614C1343.51 43.4637 1343.91 43.2924 1343.9 43.5624ZM1341.36 55.3612C1341.42 55.0165 1341.85 55.1512 1341.78 55.4602C1341.7 55.8104 1341.3 55.63 1341.36 55.3612ZM1357.49 83.6195C1357.44 84.2542 1357.15 83.9329 1356.75 84.6121C1356.44 85.14 1355.86 84.6174 1356.25 84.3193C1356.52 84.1186 1356.74 84.2012 1356.54 83.8792C1355.9 82.872 1357.58 82.4977 1357.49 83.618L1357.49 83.6195ZM1340.74 68.5181C1340.84 68.44 1340.89 68.3671 1340.96 68.3478C1341.23 68.2594 1341.18 68.7881 1340.93 68.6955C1340.87 68.6739 1340.83 68.5991 1340.74 68.5181ZM1327.05 21.8084C1327.04 21.3677 1327.73 21.2973 1327.64 21.7312C1327.58 22.0249 1327.06 22.1705 1327.05 21.8084ZM1359.93 37.4295C1360.19 38.0755 1359.47 38.7963 1359.38 37.7287C1359.46 37.0877 1359.82 37.1458 1359.93 37.4295ZM1339.69 55.0111C1339.21 54.9887 1339.09 53.9877 1339.52 54.2172C1339.73 54.3266 1339.93 54.797 1339.69 55.0111ZM1351.17 39.6268C1350.96 40.212 1349.82 39.9904 1350.15 39.6298C1350.64 39.0964 1351.32 39.1929 1351.17 39.6268ZM1279.88 59.7528C1279.9 60.0819 1279.35 60.2096 1279.3 59.7984C1279.26 59.3741 1279.86 59.3389 1279.88 59.7528ZM1352.2 60.5634C1351.65 60.3397 1352.61 59.7826 1352.98 60.0162C1353.42 60.283 1352.74 60.7795 1352.2 60.5634ZM1312.07 32.7765C1312.24 32.6717 1312.69 33.0965 1312.18 33.3886C1312.11 33.325 1312 33.2681 1311.95 33.174C1311.88 33.0304 1311.95 32.846 1312.06 32.7784L1312.07 32.7765ZM1290.48 49.1645C1290.59 49.1482 1290.63 49.2244 1290.61 49.3218C1290.6 49.3713 1290.54 49.4151 1290.46 49.5055C1290.41 49.4032 1290.25 49.2001 1290.48 49.1597L1290.48 49.1645ZM1326.47 48.0699C1326.48 47.4356 1327.35 47.1978 1327.24 47.6265C1327.09 48.1776 1326.47 48.4083 1326.47 48.0699ZM1339.61 43.0867C1339.67 43.1544 1339.72 43.2221 1339.8 43.3258C1339.7 43.3961 1339.55 43.6009 1339.47 43.2324C1339.46 43.2 1339.56 43.1365 1339.61 43.0867ZM1335.3 33.6571C1335.54 33.4203 1335.44 33.456 1335.68 33.6468C1335.4 33.8613 1335.5 33.8699 1335.3 33.6571ZM1293.1 46.7814C1292.92 46.643 1293.3 46.2602 1293.6 46.4503C1293.78 46.5689 1293.38 46.9949 1293.1 46.7814ZM1283.97 38.4485C1285.06 38.9288 1284.48 40.1197 1283.84 39.7305C1283.09 39.2797 1283.32 38.1627 1283.97 38.4485ZM1297.19 34.1848C1297.07 34.5714 1296.88 34.4628 1296.96 34.9016C1297.04 35.2999 1296.51 35.4804 1296.4 35.2145C1296.28 34.9293 1296.59 34.7461 1296.67 34.6052C1296.9 34.194 1296.74 34.0415 1296.67 33.5904C1296.59 33.0405 1297.41 33.5029 1297.19 34.1833L1297.19 34.1848ZM1326.48 44.6256C1327.02 44.126 1326.94 44.8845 1326.66 44.79C1326.6 44.7684 1326.56 44.7003 1326.48 44.6256ZM1288.96 30.3264C1289.51 30.3098 1289.56 30.417 1289.67 29.9425C1289.7 29.85 1289.73 29.783 1289.77 29.7321C1289.9 29.7403 1290.04 29.7534 1290.17 29.7568C1290.17 29.7568 1290.18 29.7582 1290.18 29.7616C1290.33 30.5778 1290.29 30.7983 1290.16 30.8801C1289.46 31.2989 1289.49 32.0408 1289.14 31.6591C1288.36 30.8271 1288.66 30.3327 1288.95 30.3249L1288.96 30.3264ZM1326.13 92.3392C1326.4 92.6974 1325.97 93.4547 1325.74 92.6162C1325.83 92.3392 1325.98 92.1247 1326.13 92.3392ZM1317.29 79.0799C1317.01 78.7143 1316.71 78.9786 1316.66 78.6179C1316.65 78.4718 1316.95 78.3901 1316.98 78.4622C1317.16 78.8817 1317.75 78.5956 1317.66 78.9135C1317.61 79.0707 1317.41 79.2406 1317.29 79.0766L1317.29 79.0799ZM1280.95 66.0178C1280.73 65.7768 1280.81 65.5623 1280.99 65.4051C1281.35 65.0772 1281.51 65.8979 1280.95 66.0178ZM1367.59 62.0582C1367.21 61.9197 1367.14 61.4653 1367.4 61.4219C1368.07 61.3146 1368.15 62.2554 1367.59 62.0582ZM1337.69 62.6618C1337.7 62.6827 1337.63 62.7514 1337.56 62.8381C1337.5 62.7574 1337.44 62.7045 1337.43 62.6398C1337.42 62.5978 1337.57 62.4045 1337.68 62.6637L1337.69 62.6618ZM1339.38 63.2736C1338.65 63.15 1339.43 62.0931 1339.63 62.8108C1339.7 63.0558 1339.61 63.3131 1339.38 63.2736ZM1319.47 66.5552C1319.24 66.2413 1319.51 66.1611 1319.6 66.1797C1319.84 66.227 1319.8 66.5721 1319.47 66.5552ZM1335.69 62.3407C1335.75 61.9511 1336.24 61.9813 1336.16 62.3364C1336.08 62.68 1335.65 62.6531 1335.69 62.3407ZM1313.62 71.1926C1313.32 71.3085 1313.51 70.3615 1313.81 70.6364C1313.97 70.7822 1313.9 71.0859 1313.62 71.1926ZM1360.61 71.4729C1360.29 70.6815 1360.23 68.9473 1360.92 69.4011C1361.34 69.669 1362.01 70.4355 1361.68 70.811C1361.31 71.2225 1360.78 71.8686 1360.61 71.4729ZM1343.51 89.3912C1343.16 89.635 1342.64 89.3333 1342.9 88.8013C1343.44 87.6971 1344.21 88.9054 1343.51 89.3912ZM1318.16 56.7826C1318.54 57.0173 1318.4 57.6565 1317.62 57.5402C1316.9 57.4341 1317.55 56.4084 1318.16 56.7826ZM1371.22 50.2601C1370.78 50.4199 1370.72 49.8918 1370.66 49.6706C1370.77 47.9237 1372.12 49.9294 1371.22 50.2601ZM1328.12 33.439C1327.58 33.4303 1328.15 32.2856 1328.57 32.9487C1328.57 33.1918 1328.34 33.4431 1328.12 33.439ZM1353.75 49.0447C1353.34 49.0036 1353.32 48.2008 1353.81 48.1887C1354.29 48.1773 1354.12 49.0838 1353.75 49.0447ZM1302.49 40.3272C1302.41 40.2986 1302.35 40.2216 1302.23 40.126C1302.34 40.029 1302.41 39.9308 1302.49 39.9156C1302.78 39.8577 1302.69 40.3946 1302.49 40.3272ZM1333.41 57.0258C1333.51 56.9492 1333.57 56.8778 1333.63 56.8567C1333.93 56.7526 1333.88 57.2814 1333.61 57.1943C1333.55 57.1712 1333.5 57.1017 1333.41 57.0258ZM1326.22 57.7625C1326.15 57.7577 1326.09 57.7082 1325.97 57.652C1326.44 57.2223 1326.44 57.7763 1326.22 57.7625ZM1327.54 61.9978C1327.62 61.9595 1327.69 61.9089 1327.75 61.906C1327.78 61.903 1327.84 62.0276 1327.82 62.048C1327.64 62.2901 1327.61 62.1331 1327.53 61.9963L1327.54 61.9978ZM1311.72 87.9094C1311.71 88.5222 1310.87 88.5722 1310.86 87.9783C1310.84 87.4563 1311.72 87.3554 1311.72 87.9094ZM1346.46 28.9663C1346.4 29.4724 1345.49 29.1728 1346.07 28.7364C1346.15 28.6806 1346.49 28.6919 1346.46 28.9663ZM1334.74 73.9979C1334.53 74.3916 1334.34 74.7865 1334.17 74.9727C1333.49 75.7129 1332.74 74.8827 1333.04 74.4009C1333.44 73.7741 1333.84 74.2074 1333.89 73.7151C1333.92 73.3935 1333.91 73.1079 1334.31 73.1344C1334.79 73.1654 1334.98 73.5388 1334.74 73.9994L1334.74 73.9979ZM1300.93 71.4967C1300.75 70.943 1301.2 71.1291 1301.09 71.3547C1301.07 71.4016 1301.01 71.4291 1300.93 71.4967ZM1289.08 70.5689C1288.97 70.2788 1288.92 70.3725 1289.16 70.1748C1289.32 70.4187 1289.32 70.3209 1289.08 70.5689ZM1335.68 50.1404C1335.44 50.4456 1334.86 50.361 1334.79 49.8821C1334.69 49.0555 1335.96 49.769 1335.68 50.1404ZM1329.52 64.5465C1329.79 64.2477 1329.97 64.286 1330.06 64.501C1330.23 64.9405 1329.16 64.9361 1329.52 64.5465ZM1273.75 70.6548C1273.59 70.4175 1273.56 70.5346 1273.67 70.1308C1273.68 70.091 1274.02 70.1841 1273.94 70.4481C1273.91 70.5161 1273.83 70.5708 1273.75 70.6563L1273.75 70.6548ZM1282.62 84.119C1282.03 84.1471 1281.99 83.5298 1282.28 83.5321C1282.77 83.5367 1282.9 84.1153 1282.62 84.119ZM1279.69 45.9595C1279.98 45.1303 1280.65 45.5087 1280.4 46.014C1280.27 46.2749 1279.66 46.5462 1279.69 45.9595ZM1256.98 62.6189C1257.43 62.081 1257.56 62.1584 1257.54 61.8635C1257.53 61.717 1258.26 61.3439 1257.51 62.7667C1257.31 63.1556 1257.02 62.674 1256.98 62.6189ZM1297.75 64.1268C1297.71 64.2152 1297.63 64.2829 1297.54 64.3985C1297.13 63.815 1297.86 63.8765 1297.75 64.1268ZM1300.54 64.1792C1300.61 64.1306 1300.66 64.0543 1300.73 64.0447C1300.84 64.0213 1300.94 64.1292 1300.91 64.224C1300.88 64.2872 1300.81 64.3333 1300.72 64.4225C1300.65 64.3198 1300.6 64.2503 1300.55 64.1807L1300.54 64.1792ZM1294.88 64.0192C1294.54 64.0518 1294.71 63.4733 1295.04 63.5068C1295.29 63.5341 1295.18 63.9899 1294.88 64.0192ZM1267.09 49.937C1267.11 50.5112 1267.62 50.7106 1267.25 51.037C1266.96 51.3009 1266.64 50.968 1266.77 50.7267C1267.01 50.2527 1266.67 50.2377 1266.8 49.995C1266.89 49.8009 1267.08 49.9028 1267.09 49.937ZM1333.2 62.5988C1333.18 62.2634 1333.7 62.1862 1333.68 62.5889C1333.67 62.9146 1333.23 62.9164 1333.2 62.5988ZM1287.94 66.51C1288.12 66.4899 1287.87 66.987 1287.59 66.9107C1287.52 66.8925 1287.15 66.5915 1287.94 66.51ZM1284.89 69.4514C1284.61 69.9024 1284.19 69.565 1284.42 69.1538C1284.66 68.6991 1285.22 68.9012 1284.89 69.4514ZM1299.62 68.2376C1300.01 68.3139 1299.56 69.0545 1299.42 68.7521C1299.31 68.5026 1299.48 68.21 1299.62 68.2376ZM1300.06 84.8927C1300.82 84.698 1299.86 87.974 1299.77 85.3741C1299.76 85.1164 1299.81 84.9588 1300.06 84.8927ZM1322.51 85.2242C1322.53 85.4295 1322.14 85.5673 1321.96 85.4222C1321.54 85.0763 1322.49 84.7535 1322.51 85.2242ZM1311.63 62.1422C1311.61 62.9826 1310.44 62.449 1310.93 61.5385C1311.16 61.0991 1311.63 61.4279 1311.63 62.1422ZM1289.13 71.529C1289.37 71.4569 1289.49 71.8894 1289.19 71.9626C1288.93 72.022 1288.69 71.6579 1289.13 71.529ZM1301.03 66.9645C1301.17 67.0772 1301.06 67.3437 1300.82 67.254C1300.74 66.8576 1301 66.9414 1301.03 66.9645ZM1343.16 76.5304C1343.17 75.9336 1343.9 75.9884 1343.88 76.5826C1343.86 77.0541 1343.15 77.0323 1343.16 76.5304ZM1311.52 97.0436C1311.71 97.4314 1311.15 98.0299 1310.9 97.6941C1310.57 97.2493 1311.31 96.6159 1311.52 97.0436ZM1311.9 46.8304C1312.13 46.8372 1312.12 47.3131 1311.69 47.2978C1311.53 46.9623 1311.73 46.8252 1311.9 46.8304ZM1291.14 95.4625C1291.17 96.2341 1289.83 96.4973 1290.11 95.9694C1290.41 95.408 1291.13 94.9144 1291.14 95.4625ZM1328.53 77.9253C1328.88 77.7373 1328.9 77.999 1328.85 78.1143C1328.76 78.308 1328.47 78.2388 1328.53 77.9253Z" fill="#E5BA94"/>
<path d="M1305.99 175.211C1305.99 175.211 1315.67 167.822 1320.72 170.006C1325.76 172.183 1333.83 171.842 1361.88 198.819C1389.92 225.797 1380.89 248.263 1371.63 264.145C1362.37 280.027 1325.64 292.566 1311.54 289.803C1297.43 287.04 1262.02 267.529 1253.56 246.1L1305.99 175.218L1305.99 175.211Z" fill="#DB3339"/>
<path d="M1316.67 232.811C1297.36 253.766 1277.69 269.84 1257.64 251.509C1245.27 240.198 1248.85 211.127 1268.07 190.081C1287.9 168.375 1315.26 162.345 1328.33 172.861C1341.4 183.377 1341.44 205.934 1316.67 232.811ZM1370.61 189.379L1398.84 177.264L1389.73 162.989L1364.55 181.547L1350.99 157.892L1356.08 179.347L1333.28 171.188L1351.34 191.585L1343.23 205.378L1363.26 201.092L1377.58 227.185L1373.89 200.447L1393.22 205.401L1370.6 189.372L1370.61 189.379Z" fill="#A13137"/>
<path d="M1370.45 230.605C1370.45 230.605 1372.35 242.62 1369.04 252.939C1365.72 263.258 1343.05 268.762 1343.05 268.762C1343.05 268.762 1371.14 249.549 1370.45 230.605Z" fill="white"/>
<path d="M1291.1 200.322C1291.1 200.322 1301.26 186.122 1304.53 181.605C1307.79 177.088 1309.32 174.517 1311.38 174.095C1313.43 173.68 1315.78 173.675 1315.78 173.675C1315.78 173.675 1321.31 175.584 1323.05 177.463C1324.8 179.342 1322.32 182.427 1322.32 182.427C1322.32 182.427 1297.35 203.293 1297.96 204.579C1298.57 205.865 1301.18 205.106 1306.8 204.869C1312.42 204.631 1323.47 203.516 1325.65 204.634C1327.82 205.752 1328.51 208.047 1327.59 210.323C1326.66 212.599 1322.76 218.811 1321.07 219.998C1319.37 221.184 1316.42 222.613 1316.42 222.613C1316.42 222.613 1296.53 210.891 1296 210.629C1295.48 210.368 1293.57 212.525 1294.01 213.103C1294.45 213.682 1305.46 232.191 1305.37 233.638C1305.28 235.084 1302.07 240.437 1299.04 241.964C1296 243.484 1292.61 245.675 1291.33 244.803C1290.04 243.932 1289.69 238.73 1289.69 238.73C1289.69 238.73 1288.18 221.481 1286.8 221.168C1285.42 220.855 1282.02 245.109 1280.89 248.319C1279.75 251.53 1277.97 253.747 1274.64 253.604C1271.31 253.46 1264.41 249.664 1264.41 249.664L1260.82 245.348C1260.82 245.348 1279.21 222.043 1279.17 219.625C1279.13 217.208 1259.3 231.263 1258.01 229.27C1256.73 227.276 1256.42 220.681 1259.36 215.434C1262.32 210.194 1265.12 210.301 1266.75 210.539C1268.37 210.776 1278.98 212.39 1278.98 212.39C1278.98 212.39 1280.27 210.82 1279.07 209.384C1277.87 207.949 1266.04 202.86 1266.04 202.86C1266.04 202.86 1265.6 200.918 1267.03 199.372C1268.46 197.825 1271.79 192.095 1275.34 189.708C1278.89 187.322 1280.04 191.739 1281.99 194.732C1283.93 197.725 1284.08 202.928 1285.2 201.766C1286.32 200.604 1284.49 188.025 1286.13 185.529C1287.77 183.034 1292.15 178.943 1295.21 178.071C1298.26 177.199 1297.51 180.393 1295.68 185.593C1293.85 190.792 1291.08 200.308 1291.08 200.308L1291.1 200.322Z" fill="#E6BB95"/>
<path d="M1324.64 238.216C1324.69 239.103 1325.7 239.06 1325.74 238.41C1325.81 237.197 1324.58 237.198 1324.64 238.216ZM1377.92 258.779C1379.42 259.364 1379.93 261.143 1378.88 261.216C1376.78 261.37 1376.39 258.188 1377.92 258.779ZM1421.5 152.022C1419.3 152.406 1419.51 151.792 1419.55 149.065C1420.91 145.394 1423.65 151.639 1421.5 152.022ZM1344.95 244.236C1345.01 243.833 1345.73 244.167 1345.77 244.581C1345.78 244.704 1345.47 244.812 1345.14 245.037C1345.04 244.641 1344.92 244.412 1344.95 244.236ZM1317.68 241.774C1318.34 240.646 1319.56 242.853 1318.09 242.631C1317.74 242.58 1317.49 242.073 1317.68 241.774ZM1313.35 238.503C1312.86 238.131 1313.34 237.389 1314 237.689C1314.79 238.034 1313.95 238.966 1313.35 238.503ZM1236.38 198.182C1236.57 198.676 1236.77 198.996 1236.8 199.307C1236.86 199.91 1234.48 199.427 1236.38 198.182ZM1185.75 226.558C1185.79 226.338 1186.05 226.181 1186.35 225.87C1186.59 226.275 1186.82 226.513 1186.85 226.759C1186.9 227.202 1185.63 227.284 1185.75 226.558ZM1228.8 301.648C1228.67 302.855 1226.59 302.397 1227 301.301C1227.29 300.56 1228.89 300.653 1228.8 301.648ZM1383.39 243.189C1383.44 242.275 1385.14 242.451 1385.13 243.61C1385.12 244.806 1383.31 244.336 1383.39 243.189ZM1277.53 286.029C1276.97 286.148 1275.79 284.573 1277.4 284.257C1277.59 284.497 1277.9 284.754 1278.01 285.055C1278.18 285.514 1277.92 285.955 1277.55 286.029L1277.53 286.029ZM1347.93 261.926C1347.62 261.873 1347.51 261.623 1347.6 261.378C1347.65 261.253 1347.85 261.193 1348.12 261.022C1348.23 261.345 1348.64 262.049 1347.93 261.94L1347.93 261.926ZM1239.59 230.82C1239.34 232.536 1236.65 232.358 1237.14 231.302C1237.77 229.942 1239.71 229.904 1239.59 230.82ZM1198.46 231.923C1198.32 231.689 1198.18 231.454 1197.96 231.092C1198.29 230.998 1198.81 230.582 1198.94 231.663C1198.94 231.757 1198.63 231.836 1198.46 231.923ZM1208.14 261.636C1207.35 262.056 1207.66 262.05 1206.98 261.299C1207.9 260.983 1207.63 260.871 1208.14 261.636ZM1339.27 265.928C1339.76 266.475 1338.47 267.149 1337.65 266.353C1337.14 265.857 1338.49 265.079 1339.27 265.928ZM1363.78 297.222C1360.68 294.883 1362.81 292.191 1364.6 293.857C1366.7 295.794 1365.64 298.615 1363.78 297.222ZM1322.64 296.286C1323.15 295.353 1323.67 295.826 1323.57 294.555C1323.48 293.401 1325.13 293.411 1325.37 294.239C1325.63 295.125 1324.63 295.327 1324.35 295.638C1323.52 296.539 1323.95 297.105 1323.99 298.392C1324.04 299.964 1321.75 297.933 1322.64 296.292L1322.64 296.286ZM1238.38 240.176C1236.59 241.024 1237.09 239.036 1237.89 239.555C1238.06 239.672 1238.18 239.9 1238.38 240.176ZM1346.01 314.571C1344.35 314.094 1344.24 313.757 1343.73 314.937C1343.63 315.167 1343.51 315.318 1343.37 315.418C1342.97 315.268 1342.56 315.102 1342.16 314.966C1342.16 314.966 1342.16 314.96 1342.16 314.952C1341.99 312.591 1342.17 312.023 1342.61 311.931C1344.84 311.451 1344.99 309.404 1345.93 310.778C1347.97 313.774 1346.92 314.839 1346.02 314.578L1346.01 314.571ZM1255.87 110.825C1255.2 109.6 1256.74 107.946 1257.14 110.443C1256.79 111.114 1256.28 111.558 1255.87 110.825ZM1277.84 155.24C1278.56 156.5 1279.55 156.064 1279.55 157.084C1279.56 157.5 1278.6 157.43 1278.54 157.207C1278.15 155.898 1276.3 156.122 1276.67 155.341C1276.85 154.954 1277.52 154.685 1277.84 155.248L1277.84 155.24ZM1382.34 225.148C1382.92 226.012 1382.61 226.521 1382.02 226.779C1380.81 227.325 1380.62 224.944 1382.34 225.148ZM1267 187.175C1267.6 188.25 1266.74 188.206 1266.48 188.072C1265.78 187.715 1266.02 186.816 1267 187.175ZM1286.14 180.108C1287.1 180.082 1286.2 182.474 1285.39 181.444C1284.96 180.894 1285.26 180.131 1286.14 180.108ZM1267.56 214.986C1266.49 213.982 1267.14 212.381 1269.44 213.435C1271.55 214.402 1269.27 216.582 1267.56 214.986ZM1229.64 268.991C1231.24 269.521 1229.14 272.094 1228.13 269.9C1228.2 269.234 1228.98 268.771 1229.64 268.991ZM1308.88 274.534C1309.12 274.691 1309.29 274.961 1309.61 275.333C1309.23 275.488 1308.99 275.688 1308.75 275.654C1307.86 275.539 1308.31 274.164 1308.88 274.534ZM1221.89 199.872C1221.57 199.987 1221.37 200.127 1221.17 200.121C1220.24 200.123 1220.59 198.739 1221.35 199.224C1221.53 199.348 1221.66 199.583 1221.89 199.872ZM1243.73 204.684C1243.94 204.762 1244.1 204.952 1244.45 205.222C1242.87 205.937 1243.07 204.435 1243.73 204.684ZM1241.23 191.922C1240.97 191.947 1240.75 192.022 1240.57 191.971C1240.48 191.953 1240.35 191.558 1240.4 191.519C1241.01 191.027 1241.06 191.484 1241.24 191.929L1241.23 191.922ZM1297.63 136.48C1297.85 134.817 1300.38 135.475 1300.23 137.106C1300.1 138.54 1297.43 137.982 1297.63 136.48ZM1173.08 263.78C1173.43 262.461 1176.06 264.135 1174.16 264.769C1173.92 264.852 1172.89 264.495 1173.08 263.78ZM1324.34 191.304C1324.67 192.973 1323.39 192.044 1323.78 191.532C1323.87 191.426 1324.07 191.41 1324.34 191.304ZM1359.54 205.039C1359.79 205.939 1359.96 205.728 1359.17 206.038C1358.78 205.224 1358.76 205.494 1359.54 205.039ZM1212.73 216.442C1213.53 215.832 1215.26 216.619 1215.29 217.98C1215.31 220.326 1211.75 217.183 1212.73 216.442ZM1236.18 183.122C1235.26 183.678 1234.71 183.395 1234.53 182.732C1234.18 181.377 1237.38 182.401 1236.18 183.122ZM1405.57 219.328C1405.98 220.127 1406.09 219.831 1405.63 220.827C1405.58 220.924 1404.59 220.347 1404.94 219.712C1405.03 219.548 1405.3 219.478 1405.57 219.321L1405.57 219.328ZM1383.61 174.337C1385.38 174.816 1385.29 176.532 1384.42 176.249C1382.97 175.778 1382.77 174.081 1383.61 174.337ZM1379.22 280.816C1378.07 282.796 1376.21 281.14 1377.13 280.001C1377.6 279.413 1379.54 279.258 1379.22 280.816ZM1331.32 214.34C1331.46 214.137 1331.73 214.031 1332.06 213.806C1333.07 215.775 1330.91 214.919 1331.32 214.34ZM1322.96 211.553C1322.75 211.627 1322.56 211.781 1322.36 211.746C1322.01 211.702 1321.75 211.313 1321.88 211.088C1321.98 210.939 1322.22 210.885 1322.52 210.726C1322.7 211.076 1322.82 211.311 1322.95 211.546L1322.96 211.553ZM1339.89 217.352C1340.92 217.585 1340.2 218.993 1339.25 218.596C1338.5 218.285 1338.97 217.143 1339.89 217.352ZM1224.44 184.922C1224.39 185.856 1222.81 185.574 1222.99 184.495C1223.14 183.621 1224.48 184.038 1224.44 184.922ZM1361.58 217.157C1361.04 217.042 1361.95 215.925 1362.77 216.4C1362.95 216.509 1363.95 217.676 1361.58 217.157ZM1371.74 212.05C1372.72 211.083 1373.88 212.404 1373.06 213.306C1372.15 214.306 1370.55 213.23 1371.74 212.05ZM1327.12 201.395C1325.99 200.823 1327.6 199.24 1327.9 200.189C1328.15 200.972 1327.53 201.603 1327.12 201.395ZM1331.54 155.712C1329.21 155.526 1333.22 147.531 1332.59 154.684C1332.53 155.393 1332.33 155.773 1331.54 155.712ZM1264.31 133.552C1264.34 132.982 1265.55 132.975 1266.03 133.537C1267.17 134.874 1264.23 134.859 1264.31 133.552ZM1289.01 206.597C1289.34 204.324 1292.68 206.886 1290.9 208.899C1290.04 209.869 1288.75 208.531 1289.01 206.597ZM1359.73 202.386C1358.98 202.352 1358.79 201.07 1359.71 201.155C1360.49 201.231 1361.09 202.452 1359.73 202.386ZM1322.46 203.523C1322.08 203.087 1322.5 202.464 1323.2 202.938C1323.3 204.092 1322.54 203.614 1322.46 203.523ZM1301.37 111.84C1300.93 110.605 1302.8 109.506 1303.45 110.659C1304.29 112.183 1301.86 113.204 1301.37 111.84ZM1282.92 247.956C1282.22 247.716 1282.42 246.433 1283.7 246.881C1284.07 247.944 1283.41 248.125 1282.92 247.956ZM1361.95 135.432C1362.14 133.311 1366.23 133.859 1365.22 135.032C1364.14 136.279 1361.81 136.939 1361.95 135.432Z" fill="#E5BA94"/>
<path d="M1364.5 261.976C1364.55 262.863 1365.56 262.82 1365.61 262.17C1365.67 260.958 1364.44 260.959 1364.5 261.976ZM1461.36 175.782C1459.17 176.166 1459.38 175.553 1459.42 172.826C1460.77 169.155 1463.51 175.4 1461.36 175.782ZM1384.82 267.997C1384.87 267.594 1385.59 267.927 1385.63 268.341C1385.64 268.464 1385.33 268.572 1385.01 268.797C1384.9 268.401 1384.79 268.173 1384.82 267.997ZM1357.53 265.542C1358.2 264.414 1359.42 266.621 1357.95 266.399C1357.59 266.348 1357.35 265.841 1357.53 265.542ZM1353.21 262.271C1352.71 261.899 1353.2 261.157 1353.86 261.457C1354.65 261.802 1353.81 262.734 1353.21 262.271ZM1276.23 221.949C1276.43 222.444 1276.63 222.763 1276.66 223.075C1276.71 223.678 1274.34 223.195 1276.23 221.949ZM1225.61 250.326C1225.64 250.106 1225.91 249.949 1226.2 249.638C1226.44 250.043 1226.68 250.281 1226.71 250.527C1226.76 250.97 1225.49 251.052 1225.61 250.326ZM1237.32 220.671C1237 221.545 1235.76 220.773 1236.09 220.002C1236.45 219.127 1237.57 219.99 1237.32 220.671ZM1243.69 185.493C1243.38 185.615 1243.19 185.762 1243 185.755C1242.14 185.733 1242.49 184.349 1243.2 184.836C1243.38 184.952 1243.48 185.196 1243.69 185.493ZM1268.66 325.408C1268.54 326.616 1266.45 326.157 1266.87 325.061C1267.15 324.321 1268.75 324.414 1268.66 325.408ZM1175.42 251.819C1174.86 249.817 1177.28 248.542 1177.17 251.527C1176.71 253.193 1175.66 252.698 1175.42 251.819ZM1242.19 223.198C1243.64 223.72 1243.63 226.547 1242.43 225.519C1241.85 225.027 1241.39 223.552 1242.19 223.198ZM1202.46 254.145C1203.3 252.755 1206.64 254.435 1205.52 255.102C1203.85 256.083 1201.85 255.177 1202.46 254.145ZM1317.4 309.79C1316.84 309.908 1315.65 308.334 1317.27 308.018C1317.45 308.257 1317.76 308.514 1317.87 308.815C1318.04 309.275 1317.78 309.715 1317.41 309.789L1317.4 309.79ZM1387.79 285.686C1387.48 285.634 1387.37 285.383 1387.47 285.139C1387.51 285.013 1387.71 284.953 1387.98 284.782C1388.09 285.105 1388.5 285.809 1387.79 285.701L1387.79 285.686ZM1279.45 254.581C1279.2 256.296 1276.51 256.118 1277.01 255.063C1277.63 253.703 1279.58 253.664 1279.45 254.581ZM1238.32 255.684C1238.18 255.449 1238.05 255.215 1237.83 254.852C1238.16 254.758 1238.68 254.343 1238.8 255.423C1238.81 255.517 1238.49 255.597 1238.32 255.684ZM1248.01 285.397C1247.22 285.816 1247.52 285.811 1246.85 285.059C1247.77 284.744 1247.49 284.632 1248.01 285.397ZM1379.13 289.688C1379.62 290.235 1378.33 290.909 1377.51 290.113C1377 289.617 1378.35 288.839 1379.13 289.688ZM1362.5 320.046C1363.01 319.114 1363.54 319.587 1363.44 318.316C1363.35 317.161 1365 317.172 1365.24 317.999C1365.49 318.885 1364.49 319.087 1364.21 319.398C1363.39 320.3 1363.81 320.865 1363.85 322.153C1363.91 323.724 1361.61 321.694 1362.51 320.053L1362.5 320.046ZM1278.24 263.936C1276.46 264.784 1276.95 262.796 1277.75 263.316C1277.93 263.432 1278.04 263.661 1278.24 263.936ZM1295.74 134.585C1295.06 133.36 1296.61 131.707 1297.01 134.204C1296.65 134.874 1296.14 135.319 1295.74 134.585ZM1317.71 179.001C1318.42 180.26 1319.41 179.825 1319.41 180.845C1319.42 181.26 1318.47 181.191 1318.41 180.967C1318.01 179.658 1316.16 179.882 1316.53 179.101C1316.72 178.714 1317.39 178.446 1317.7 179.008L1317.71 179.001ZM1422.2 248.908C1422.78 249.773 1422.47 250.281 1421.88 250.539C1420.68 251.086 1420.48 248.704 1422.2 248.908ZM1250.84 204.303C1250.82 204.238 1251.06 204.119 1251.3 203.949C1251.43 204.22 1251.59 204.417 1251.61 204.606C1251.62 204.729 1251.11 205.115 1250.86 204.303L1250.84 204.303ZM1245.98 201.04C1248.12 202.065 1245.41 204.197 1245.08 202.062C1244.96 201.331 1245.3 200.712 1245.98 201.04ZM1306.84 210.973C1307.43 212.048 1306.58 212.004 1306.31 211.87C1305.61 211.513 1305.85 210.614 1306.84 210.973ZM1256.71 207.064C1256.43 208.075 1254.96 207.525 1255.32 206.635C1255.67 205.775 1256.94 206.253 1256.71 207.064ZM1325.98 203.906C1326.93 203.88 1326.03 206.272 1325.23 205.242C1324.79 204.692 1325.09 203.929 1325.98 203.906ZM1307.4 238.776C1306.33 237.772 1306.98 236.171 1309.27 237.225C1311.39 238.193 1309.11 240.373 1307.4 238.776ZM1269.47 292.789C1271.07 293.319 1268.98 295.892 1267.96 293.698C1268.03 293.032 1268.81 292.569 1269.47 292.789ZM1197.98 226.107C1199.18 226.603 1198.97 228.805 1197.49 228.372C1196.05 227.952 1196.86 225.644 1197.98 226.107ZM1348.72 298.332C1348.96 298.489 1349.12 298.759 1349.45 299.131C1349.07 299.286 1348.82 299.486 1348.58 299.452C1347.69 299.337 1348.15 297.962 1348.72 298.332ZM1261.72 223.67C1261.41 223.785 1261.21 223.925 1261 223.919C1260.08 223.922 1260.42 222.537 1261.18 223.022C1261.37 223.146 1261.49 223.381 1261.72 223.67ZM1283.57 228.482C1283.77 228.56 1283.93 228.751 1284.28 229.02C1282.7 229.735 1282.9 228.233 1283.57 228.482ZM1281.06 215.72C1280.8 215.745 1280.58 215.82 1280.4 215.77C1280.31 215.751 1280.18 215.356 1280.24 215.317C1280.85 214.825 1280.89 215.283 1281.07 215.727L1281.06 215.72ZM1337.46 160.278C1337.68 158.615 1340.21 159.273 1340.06 160.904C1339.93 162.338 1337.26 161.78 1337.46 160.278ZM1212.91 287.578C1213.27 286.259 1215.89 287.934 1213.99 288.568C1213.75 288.65 1212.72 288.293 1212.91 287.578ZM1263.6 176.287C1264.35 175.41 1265.07 174.52 1265.64 174.176C1267.95 172.81 1269.9 175.774 1268.82 176.795C1267.41 178.123 1266.36 176.564 1266.05 177.86C1265.85 178.706 1265.78 179.489 1264.58 179.037C1263.16 178.499 1262.72 177.308 1263.59 176.28L1263.6 176.287ZM1364.17 215.102C1364.5 216.772 1363.22 215.842 1363.62 215.33C1363.7 215.224 1363.9 215.208 1364.17 215.102ZM1399.37 228.837C1399.62 229.737 1399.79 229.526 1399.01 229.836C1398.61 229.022 1398.59 229.292 1399.37 228.837ZM1252.56 240.24C1253.36 239.63 1255.1 240.417 1255.12 241.779C1255.15 244.124 1251.58 240.981 1252.56 240.24ZM1276.01 206.92C1275.09 207.476 1274.54 207.193 1274.37 206.53C1274.01 205.175 1277.21 206.199 1276.01 206.92ZM1423.45 198.135C1425.22 198.614 1425.13 200.33 1424.25 200.047C1422.8 199.576 1422.6 197.879 1423.45 198.135ZM1371.15 238.139C1371.3 237.936 1371.57 237.829 1371.89 237.604C1372.9 239.573 1370.74 238.717 1371.15 238.139ZM1362.79 235.351C1362.59 235.425 1362.39 235.579 1362.19 235.544C1361.85 235.5 1361.58 235.111 1361.72 234.886C1361.81 234.737 1362.05 234.683 1362.35 234.525C1362.54 234.874 1362.66 235.109 1362.78 235.344L1362.79 235.351ZM1379.73 241.15C1380.76 241.383 1380.04 242.791 1379.08 242.394C1378.34 242.083 1378.8 240.941 1379.73 241.15ZM1264.27 208.72C1264.23 209.654 1262.64 209.372 1262.83 208.293C1262.98 207.419 1264.31 207.836 1264.27 208.72ZM1401.41 240.955C1400.87 240.84 1401.78 239.723 1402.6 240.198C1402.79 240.307 1403.79 241.474 1401.41 240.955ZM1411.57 235.848C1412.55 234.882 1413.71 236.202 1412.89 237.104C1411.98 238.104 1410.38 237.028 1411.57 235.848ZM1366.95 225.193C1365.82 224.621 1367.44 223.038 1367.74 223.987C1367.98 224.771 1367.36 225.401 1366.95 225.193ZM1371.37 179.51C1369.04 179.324 1373.05 171.329 1372.43 178.482C1372.37 179.191 1372.16 179.572 1371.37 179.51ZM1304.14 157.35C1304.17 156.78 1305.38 156.773 1305.87 157.335C1307 158.672 1304.07 158.657 1304.14 157.35ZM1328.85 230.395C1329.17 228.122 1332.51 230.684 1330.73 232.698C1329.87 233.667 1328.58 232.33 1328.85 230.395ZM1399.56 226.184C1398.81 226.15 1398.62 224.868 1399.55 224.953C1400.32 225.03 1400.93 226.25 1399.56 226.184ZM1362.29 227.321C1361.92 226.885 1362.33 226.262 1363.03 226.736C1363.14 227.89 1362.37 227.412 1362.29 227.321ZM1239.2 161.426C1238.97 163.039 1236.79 162.198 1237.07 160.605C1237.29 159.343 1239.4 160.07 1239.2 161.426ZM1341.2 135.638C1340.76 134.403 1342.64 133.304 1343.28 134.457C1344.13 135.981 1341.69 137.002 1341.2 135.638ZM1322.76 271.754C1322.06 271.514 1322.25 270.231 1323.54 270.68C1323.9 271.743 1323.24 271.923 1322.76 271.754ZM1401.78 159.23C1401.97 157.109 1406.06 157.658 1405.05 158.83C1403.98 160.077 1401.64 160.737 1401.78 159.23ZM1283.57 171.488C1282.47 171.672 1282.48 170.936 1282.68 170.673C1283.01 170.229 1283.86 170.695 1283.57 171.488Z" fill="#D93339"/>
<path d="M320.24 109.467C309.367 109.04 283.836 121.179 278.264 131.511C272.691 141.842 280.768 156.544 291.221 155.962C301.674 155.38 304.949 150.469 304.949 150.469L311.09 164.02C311.09 164.02 332.769 155.759 332.944 154.096C333.12 152.432 325.254 139.779 325.254 139.779C325.254 139.779 337.405 140.768 338.113 131.646C338.822 122.525 331.109 109.9 320.236 109.473L320.24 109.467ZM301.043 145.225C296.351 153.417 289.801 149.049 290.709 145.984C291.617 142.919 297.253 141.708 297.253 141.708L301.039 145.231L301.043 145.225ZM328.22 130.169C330.933 132.859 332.052 138.176 321.172 135.427C321.172 135.427 318.181 130.212 318.771 129.554C319.361 128.896 325.502 127.475 328.22 130.169Z" fill="#DB3339"/>
<path d="M335.085 153.974C335.111 154.551 335.752 154.448 335.783 154.018C335.835 153.218 335.054 153.311 335.085 153.974ZM368.662 163.479C369.607 163.751 369.917 164.879 369.251 165.005C367.924 165.263 367.702 163.205 368.662 163.479ZM397.046 90.2374C395.654 90.653 395.792 90.235 395.837 88.4444C396.72 85.9367 398.41 89.8264 397.046 90.2374ZM347.902 156.405C347.939 156.136 348.395 156.301 348.414 156.57C348.423 156.65 348.223 156.744 348.017 156.915C347.953 156.663 347.882 156.522 347.902 156.405ZM218.907 131.5C218.27 131.188 218.313 130.275 218.895 130.334C220.207 130.484 220.107 132.088 218.907 131.5ZM330.648 156.831C331.079 156.042 331.832 157.398 330.906 157.362C330.68 157.355 330.53 157.041 330.648 156.831ZM327.933 155.01C327.623 154.803 327.934 154.28 328.354 154.427C328.848 154.595 328.313 155.268 327.933 155.01ZM279.503 134.319C279.625 134.629 279.747 134.823 279.765 135.025C279.795 135.416 278.294 135.277 279.503 134.319ZM247.242 156.701C247.266 156.554 247.436 156.431 247.624 156.205C247.774 156.452 247.92 156.591 247.936 156.75C247.968 157.036 247.162 157.185 247.242 156.701ZM254.876 136.385C254.667 136.982 253.89 136.568 254.1 136.038C254.337 135.437 255.04 135.92 254.876 136.385ZM231.094 78.9032C231.341 77.7761 231.801 78.4695 232.72 77.4007C233.435 76.57 234.416 77.7466 233.606 78.1303C233.051 78.3868 232.655 78.1503 232.957 78.8119C233.916 80.8838 230.657 80.8954 231.099 78.9071L231.094 78.9032ZM259.174 112.847C258.976 112.95 258.855 113.06 258.733 113.07C258.188 113.12 258.419 112.187 258.867 112.453C258.977 112.516 259.04 112.668 259.174 112.847ZM273.938 202.712C273.853 203.512 272.537 203.367 272.808 202.618C272.993 202.111 274.004 202.052 273.938 202.712ZM215.457 161.425C215.119 160.154 216.657 159.138 216.569 161.102C216.264 162.229 215.604 161.983 215.457 161.425ZM257.941 137.678C258.856 137.912 258.83 139.766 258.078 139.182C257.714 138.902 257.435 137.97 257.941 137.678ZM232.561 160.931C233.1 159.958 235.202 160.81 234.49 161.33C233.426 162.098 232.163 161.654 232.561 160.931ZM372.241 152.85C372.282 152.247 373.358 152.236 373.342 152.996C373.325 153.781 372.187 153.607 372.241 152.85ZM235.598 122.677C236.585 123.3 234.646 123.928 233.991 123.356C233.232 122.702 234.638 122.074 235.598 122.677ZM304.91 188.835C304.553 188.955 303.814 188.011 304.839 187.683C304.958 187.826 305.148 187.972 305.217 188.161C305.32 188.449 305.155 188.757 304.92 188.834L304.91 188.835ZM349.654 167.78C349.457 167.769 349.388 167.613 349.452 167.445C349.481 167.36 349.611 167.305 349.78 167.173C349.846 167.377 350.102 167.808 349.655 167.789L349.654 167.78ZM281.296 155.472C281.128 156.615 279.425 156.699 279.746 155.97C280.152 155.032 281.384 154.862 281.296 155.472ZM255.25 159.264C255.165 159.121 255.08 158.977 254.944 158.756C255.154 158.67 255.485 158.359 255.555 159.058C255.56 159.119 255.358 159.195 255.25 159.264ZM261.162 178.021C260.658 178.355 260.85 178.329 260.43 177.887C261.015 177.611 260.84 177.558 261.162 178.021ZM344.14 171.05C344.449 171.372 343.625 171.91 343.112 171.449C342.794 171.162 343.654 170.551 344.14 171.05ZM359.429 189.737C357.479 188.435 358.852 186.511 359.974 187.469C361.288 188.583 360.593 190.512 359.429 189.737ZM333.387 192.193C333.716 191.544 334.046 191.815 333.994 190.989C333.944 190.239 334.989 190.123 335.135 190.647C335.288 191.209 334.654 191.416 334.475 191.641C333.947 192.294 334.211 192.632 334.227 193.474C334.25 194.5 332.814 193.34 333.392 192.197L333.387 192.193ZM280.463 161.695C279.325 162.385 279.653 161.044 280.156 161.326C280.266 161.389 280.337 161.53 280.463 161.695ZM348.049 202.437C347.003 202.248 346.936 202.035 346.604 202.847C346.539 203.005 346.461 203.113 346.373 203.189C346.119 203.12 345.863 203.043 345.61 202.983C345.61 202.983 345.605 202.979 345.609 202.974C345.519 201.439 345.633 201.053 345.914 200.96C347.329 200.479 347.444 199.125 348.026 199.956C349.296 201.768 348.62 202.545 348.055 202.441L348.049 202.437ZM292.499 75.5882C292.082 74.8355 293.071 73.6362 293.307 75.2432C293.077 75.7095 292.748 76.0391 292.499 75.5882ZM306.078 103.067C306.522 103.84 307.15 103.48 307.144 104.149C307.144 104.421 306.543 104.446 306.506 104.305C306.267 103.475 305.093 103.76 305.335 103.221C305.454 102.953 305.88 102.727 306.074 103.073L306.078 103.067ZM371.711 141.101C372.072 141.624 371.872 141.981 371.496 142.194C370.729 142.642 370.623 141.095 371.711 141.101ZM206.839 113.867C207.533 114.27 207.545 115.116 207.046 115.092C205.752 115.02 205.835 113.29 206.839 113.867ZM263.559 124.645C263.548 124.604 263.699 124.508 263.85 124.379C263.934 124.546 264.03 124.664 264.04 124.787C264.048 124.867 263.723 125.157 263.569 124.644L263.559 124.645ZM260.508 122.868C261.854 123.381 260.123 124.981 259.926 123.606C259.855 123.136 260.076 122.704 260.508 122.868ZM298.959 124.84C299.328 125.5 298.785 125.535 298.621 125.466C298.177 125.285 298.337 124.678 298.959 124.84ZM267.256 126.017C267.066 126.701 266.139 126.45 266.374 125.84C266.603 125.25 267.406 125.468 267.256 126.017ZM311.127 118.778C311.733 118.69 311.143 120.325 310.643 119.71C310.371 119.382 310.568 118.859 311.127 118.778ZM222.284 99.6183C222.716 101.179 222.4 104.334 221.203 103.24C220.489 102.593 219.393 100.939 220.115 100.393C220.915 99.7964 222.067 98.8379 222.284 99.6183ZM258.914 74.0184C259.633 73.7163 260.55 74.4693 259.931 75.3275C258.644 77.1088 257.485 74.6211 258.914 74.0184ZM299.11 143.025C298.435 142.447 298.859 141.349 300.306 141.868C301.637 142.345 300.179 143.944 299.11 143.025ZM197.166 133.753C198.029 133.638 198.02 134.617 198.069 135.038C197.446 138.152 195.383 133.994 197.166 133.753ZM274.697 181.266C275.706 181.494 274.358 183.337 273.734 181.974C273.782 181.533 274.281 181.171 274.697 181.266ZM229.929 142.885C230.687 143.12 230.536 144.58 229.602 144.406C228.698 144.238 229.226 142.665 229.929 142.885ZM324.822 178.986C324.974 179.071 325.076 179.236 325.279 179.456C325.037 179.586 324.88 179.735 324.727 179.731C324.168 179.721 324.465 178.786 324.822 178.986ZM270.305 136.53C270.101 136.629 269.975 136.735 269.844 136.747C269.259 136.818 269.49 135.884 269.966 136.146C270.082 136.213 270.158 136.358 270.305 136.53ZM284.096 138.055C284.226 138.091 284.325 138.204 284.545 138.354C283.538 138.941 283.677 137.941 284.096 138.055ZM282.606 129.875C282.44 129.911 282.303 129.976 282.185 129.957C282.132 129.951 282.049 129.702 282.087 129.672C282.476 129.304 282.5 129.601 282.611 129.879L282.606 129.875ZM318.723 89.3187C318.874 88.212 320.472 88.4545 320.365 89.5351C320.27 90.485 318.584 90.3187 318.723 89.3187ZM238.929 182.07C239.162 181.179 240.809 182.081 239.602 182.638C239.452 182.71 238.802 182.553 238.929 182.07ZM271.846 105.326C272.326 104.695 272.786 104.058 273.152 103.789C274.621 102.722 275.835 104.519 275.146 105.27C274.244 106.245 273.587 105.302 273.384 106.174C273.252 106.744 273.197 107.263 272.444 107.055C271.546 106.809 271.282 106.061 271.84 105.322L271.846 105.326ZM335.223 123.268C335.419 124.338 334.617 123.824 334.872 123.458C334.927 123.383 335.052 123.358 335.223 123.268ZM357.406 129.646C357.56 130.217 357.669 130.066 357.168 130.328C356.925 129.824 356.911 130.002 357.406 129.646ZM264.38 148.077C264.892 147.617 265.984 148.004 265.99 148.894C265.989 150.43 263.755 148.636 264.38 148.077ZM279.472 124.483C278.889 124.915 278.541 124.771 278.435 124.35C278.22 123.488 280.24 123.92 279.472 124.483ZM386.445 135.579C386.696 136.072 386.769 135.87 386.469 136.557C386.437 136.624 385.811 136.32 386.041 135.878C386.098 135.763 386.269 135.698 386.44 135.575L386.445 135.579ZM372.877 107.721C373.994 107.903 373.924 109.035 373.37 108.915C372.456 108.714 372.346 107.616 372.877 107.721ZM369.305 177.856C368.56 179.24 367.397 178.293 367.986 177.478C368.29 177.057 369.518 176.811 369.305 177.856ZM416.254 156.76C415.271 157.553 415.055 157.363 415.018 157.903C415.004 158.173 413.535 158.558 415.286 156.282C415.767 155.661 416.183 156.642 416.254 156.76ZM339.471 137.85C339.567 137.706 339.738 137.616 339.944 137.444C340.569 138.659 339.208 138.26 339.471 137.85ZM334.199 136.646C334.071 136.71 333.947 136.825 333.821 136.817C333.602 136.814 333.435 136.579 333.524 136.422C333.583 136.317 333.737 136.263 333.926 136.137C334.042 136.352 334.118 136.497 334.194 136.642L334.199 136.646ZM344.878 139.184C345.529 139.26 345.062 140.237 344.46 140.048C343.992 139.899 344.295 139.116 344.878 139.184ZM394.109 175.671C394.207 174.625 393.291 174.063 394.064 173.619C394.678 173.257 395.195 173.984 394.9 174.37C394.327 175.131 394.958 175.291 394.668 175.681C394.442 175.994 394.104 175.734 394.109 175.671ZM272.027 126.539C271.993 127.155 270.99 127.088 271.117 126.366C271.219 125.782 272.062 125.956 272.027 126.539ZM358.61 137.438C358.265 137.403 358.852 136.603 359.369 136.853C359.483 136.911 360.109 137.601 358.61 137.438ZM365.081 133.332C365.706 132.625 366.432 133.404 365.903 134.057C365.324 134.78 364.318 134.194 365.081 133.332ZM336.909 129.676C336.2 129.386 337.233 128.227 337.416 128.827C337.567 129.322 337.169 129.782 336.909 129.676ZM340.049 99.3966C338.574 99.4488 341.171 93.9083 340.723 98.6439C340.68 99.1134 340.546 99.3782 340.049 99.3966ZM297.65 89.8857C297.675 89.5097 298.442 89.4144 298.743 89.7472C299.453 90.5386 297.594 90.7483 297.65 89.8857ZM312.747 135.93C312.97 134.416 315.065 135.846 313.926 137.299C313.371 137.998 312.564 137.218 312.747 135.93ZM357.548 127.892C357.072 127.926 356.962 127.1 357.547 127.086C358.037 127.079 358.411 127.834 357.548 127.892ZM333.943 131.419C333.711 131.161 333.978 130.722 334.416 130.98C334.475 131.729 333.995 131.473 333.943 131.419ZM256.508 97.4039C256.348 98.4788 254.979 98.0896 255.165 97.0249C255.315 96.1805 256.644 96.4999 256.508 97.4039ZM321.272 72.886C321.004 72.1092 322.2 71.2484 322.6 71.9562C323.123 72.8922 321.572 73.7434 321.272 72.886ZM308.585 163.5C308.143 163.394 308.277 162.538 309.086 162.737C309.309 163.406 308.892 163.574 308.585 163.5ZM359.449 83.8323C359.585 82.4275 362.173 82.4815 361.522 83.3257C360.832 84.2238 359.352 84.8301 359.449 83.8323ZM284.52 100.689C283.823 100.893 283.836 100.409 283.963 100.221C284.175 99.906 284.714 100.148 284.52 100.689Z" fill="#D93339"/>
<path d="M1154.56 189.531L1161.41 195.025C1161.41 195.025 1164.71 188.256 1167.98 187.676C1171.25 187.096 1174.3 189.077 1176.54 194.157C1178.79 199.234 1180.17 203.107 1180.17 203.107C1180.17 203.107 1183.44 192.994 1193.48 197.767C1203.51 202.539 1203.83 214.678 1204.15 217.633C1204.46 220.588 1204.56 222.287 1204.56 222.287L1211.13 224.241C1211.13 224.241 1212.71 220.303 1211.81 210.492C1210.91 200.687 1201.44 188.095 1195.56 185.505C1189.67 182.922 1180.45 191.622 1180.45 191.622C1180.45 191.622 1176.3 178.461 1168.25 176.429C1160.21 174.396 1154.56 189.526 1154.56 189.526L1154.56 189.531Z" fill="#E6BB95"/>
<path d="M200.772 17.8938C198.817 19.4669 200.772 21.4236 202.382 20.426C205.296 18.5843 203.034 16.0905 200.772 17.8938Z" fill="#BC9467"/>
<path d="M252.369 159.664C253.826 163.654 250.644 167.606 248.497 165.573C244.242 161.582 250.874 155.559 252.369 159.664Z" fill="#BC9467"/>
<path d="M225.306 71.2256C226.226 70.4582 225.651 68.4629 224.616 69.0001L224.577 68.9617C224.117 69.2303 223.811 69.8059 223.082 70.6884C224.232 70.9953 225.037 71.4558 225.306 71.2256Z" fill="#BC9467"/>
<path d="M179.459 9.56799C183.292 9.10757 180.494 15.1696 178.232 11.8316C177.696 11.0259 178.424 9.68309 179.459 9.56799Z" fill="#BC9467"/>
<path d="M178.961 -4.55146C178.884 -6.16292 181.529 -6.39313 182.066 -4.55146C182.717 -2.40284 179.037 -2.59469 178.961 -4.55146Z" fill="#BC9467"/>
<path d="M298.599 145.314C300.822 143.933 303.582 147.693 300.861 149.535C298.062 151.453 295.801 147.041 298.599 145.314Z" fill="#BC9467"/>
<path d="M6.3074 -2.74824C2.58908 -5.51074 1.17078 -0.522837 2.47412 0.436366C3.35578 1.08862 4.81241 0.896629 5.57907 -0.216046C6.07742 -0.945041 6.11575 -1.98088 6.3074 -2.74824Z" fill="#BC9467"/>
<path d="M190.001 102.419C189.234 102.61 188.851 103.263 189.311 103.992L189.349 103.992C190.384 105.603 191.266 103.647 191.802 102.879C190.882 102.611 190.384 102.304 190.001 102.419Z" fill="#BC9467"/>
<path d="M163.934 92.9802C163.589 94.8603 159.602 93.3639 159.947 90.4096C160.139 88.5679 164.471 90.0259 163.934 92.9802Z" fill="#BC9467"/>
<path d="M137.177 193.85C136.794 183.721 146.991 183.682 146.492 190.013C145.917 197.418 137.407 199.874 137.177 193.85Z" fill="#BC9467"/>
<path d="M68.5223 107.867C65.7623 110.169 65.8773 108.289 62.7723 108.788C57.2907 109.67 56.8307 117.651 60.3957 114.965C63.309 112.74 63.8457 110.975 67.449 111.167C68.6757 111.243 71.014 112.932 72.5857 110.975C74.0807 109.172 71.0523 105.795 68.5223 107.867Z" fill="#BC9467"/>
<path d="M58.9007 182.071C62.5807 181.188 62.0057 181.956 63.999 186.1L63.9223 186.1C64.9956 188.363 69.4423 188.747 72.5473 179.73C74.0039 175.587 68.9439 178.579 63.6923 174.858C62.6573 174.09 61.0089 174.704 55.8723 178.886L55.8723 178.925C56.3321 179.999 56.7154 181.073 57.0986 182.147L57.099 182.148C57.5973 182.224 58.1723 182.224 58.9007 182.071Z" fill="#BC9467"/>
<path d="M338.542 113.776C337.622 116.385 335.897 116.577 334.172 115.809C330.645 114.236 335.821 109.939 338.542 113.776Z" fill="#BC9467"/>
<path d="M86.9222 48.1279C87.1906 46.9001 87.4973 46.0942 87.4206 45.3653L87.3822 45.3653C87.1906 43.6003 83.1656 44.9049 84.5456 46.9001C84.9289 47.4372 85.8489 47.5907 86.9222 48.1279Z" fill="#BC9467"/>
<path d="M342.529 34.6991C340.919 36.6942 341.724 36.6941 339.539 35.5815C340.689 33.4328 340.037 33.855 342.529 34.6991Z" fill="#BC9467"/>
<path d="M391.787 154.024C394.969 153.333 394.087 153.602 395.16 151.453C394.279 151.146 393.665 150.724 393.09 150.801C390.944 151.108 391.48 154.101 391.787 154.024Z" fill="#BC9467"/>
<path d="M458.372 33.3944C460.557 37.7684 456.417 40.3773 455.42 38.152C453.81 34.4687 457.375 31.2841 458.372 33.3944Z" fill="#BC9467"/>
<path d="M203.801 198.416C197.092 199.298 197.437 192.852 201.769 192.852C203.992 192.852 207.979 196.536 203.801 198.416Z" fill="#BC9467"/>
<path d="M389.181 308.149C391.174 306.882 391.059 308.149 396.311 309.568C396.541 309.031 398.956 305.079 395.544 304.964C383.162 304.58 388.184 308.762 389.181 308.149Z" fill="#BC9467"/>
<path d="M268.392 -7.42907C269.121 -7.46744 269.887 -7.08382 270.999 -6.77688C268.316 -1.48208 266.284 -7.31397 268.392 -7.42907Z" fill="#BC9467"/>
<path d="M277.401 14.901C278.781 17.3949 274.181 18.2006 273.337 15.63C272.686 13.5965 276.174 12.714 277.401 14.901Z" fill="#BC9467"/>
<path d="M281.196 274.461C277.707 272.927 278.052 277.531 274.142 279.833C273.912 279.948 273.836 281.79 275.522 281.79C277.631 281.828 276.596 279.219 280.697 279.296C282.767 279.334 283.994 275.689 281.196 274.461Z" fill="#BC9467"/>
<path d="M318.225 58.6023C317.497 57.2978 321.752 57.3361 322.174 59.7533C322.25 60.2904 321.407 64.2424 318.225 58.6023Z" fill="#BC9467"/>
<path d="M348.969 70.9185C353.032 71.3022 352.112 75.8296 348.509 75.6377C344.522 75.4459 344.024 70.4197 348.969 70.9185Z" fill="#BC9467"/>
<path d="M348.969 30.7854C347.627 29.1739 350.272 26.7185 351.806 28.752C353.071 30.4402 351.346 33.663 348.969 30.7854Z" fill="#BC9467"/>
<path d="M1240.28 287.846C1242.58 286.832 1241.19 284.434 1239.38 284.981C1236.08 286.006 1237.62 289.003 1240.28 287.846Z" fill="#C8102E"/>
<path d="M1227.1 137.44C1226.73 133.206 1230.83 130.211 1232.38 132.732C1235.46 137.692 1227.48 141.796 1227.1 137.44Z" fill="#C8102E"/>
<path d="M1230.37 229.938C1229.28 230.441 1229.32 232.519 1230.46 232.268L1230.48 232.315C1231 232.175 1231.44 231.698 1232.38 231.033C1231.35 230.439 1230.69 229.785 1230.37 229.938Z" fill="#C8102E"/>
<path d="M1258.73 301.416C1254.91 300.868 1259.18 295.734 1260.51 299.546C1260.82 300.464 1259.76 301.573 1258.73 301.416Z" fill="#C8102E"/>
<path d="M1255.56 315.193C1255.22 316.771 1252.6 316.308 1252.56 314.389C1252.48 312.143 1255.99 313.282 1255.56 315.193Z" fill="#C8102E"/>
<path d="M1178.68 139.332C1176.17 140.091 1174.47 135.741 1177.58 134.666C1180.79 133.537 1181.83 138.388 1178.68 139.332Z" fill="#C8102E"/>
<path d="M1422.99 358.188C1425.87 361.822 1428.53 357.368 1427.52 356.103C1426.84 355.245 1425.38 355.053 1424.35 355.93C1423.68 356.505 1423.37 357.496 1422.99 358.188Z" fill="#C8102E"/>
<path d="M1272.59 208.935C1273.38 208.948 1273.92 208.417 1273.66 207.593L1273.63 207.583C1273.04 205.757 1271.68 207.42 1270.96 208.023C1271.78 208.521 1272.19 208.947 1272.59 208.935Z" fill="#C8102E"/>
<path d="M1295.35 224.813C1296.17 223.085 1299.64 225.564 1298.54 228.33C1297.88 230.061 1294.07 227.529 1295.35 224.813Z" fill="#C8102E"/>
<path d="M1347.35 134.245C1345.1 144.135 1335.23 141.53 1337.35 135.54C1339.82 128.531 1348.69 128.363 1347.35 134.245Z" fill="#C8102E"/>
<path d="M1391.47 235.146C1394.74 233.636 1394.14 235.423 1397.27 235.746C1402.8 236.313 1405.31 228.719 1401.17 230.391C1397.78 231.787 1396.8 233.354 1393.37 232.235C1392.2 231.843 1390.38 229.605 1388.35 231.089C1386.44 232.445 1388.49 236.493 1391.47 235.146Z" fill="#C8102E"/>
<path d="M1420 165.914C1416.21 165.813 1416.97 165.22 1416.11 160.698L1416.19 160.718C1415.73 158.252 1411.53 156.729 1406.19 164.64C1403.71 168.268 1409.38 166.686 1413.5 171.644C1414.3 172.654 1416.05 172.488 1422.1 169.776L1422.11 169.739C1421.95 168.583 1421.85 167.446 1421.76 166.309L1421.76 166.306C1421.3 166.103 1420.74 165.954 1420 165.914Z" fill="#C8102E"/>
<path d="M1131.88 159.467C1133.45 157.184 1135.17 157.445 1136.63 158.634C1139.64 161.068 1133.52 163.881 1131.88 159.467Z" fill="#C8102E"/>
<path d="M1358.21 288.122C1357.63 289.24 1357.13 289.939 1357.01 290.664L1357.05 290.674C1356.78 292.429 1361.01 292.211 1360.19 289.925C1359.96 289.307 1359.11 288.92 1358.21 288.122Z" fill="#C8102E"/>
<path d="M1107.55 234.87C1109.62 233.358 1108.84 233.15 1110.67 234.792C1109 236.571 1109.74 236.331 1107.55 234.87Z" fill="#C8102E"/>
<path d="M1090.82 106.766C1087.56 106.609 1088.48 106.578 1086.89 108.377C1087.66 108.902 1088.14 109.469 1088.72 109.544C1090.88 109.803 1091.13 106.771 1090.82 106.766Z" fill="#C8102E"/>
<path d="M995.181 206.114C994.201 201.319 998.88 199.87 999.268 202.28C999.871 206.257 995.599 208.412 995.181 206.114Z" fill="#C8102E"/>
<path d="M1284.11 112.568C1290.82 113.453 1288.82 119.594 1284.63 118.472C1282.48 117.896 1279.58 113.303 1284.11 112.568Z" fill="#C8102E"/>
<path d="M1133.25 -41.5361C1131 -40.8287 1131.44 -42.0228 1126.73 -44.7558C1126.37 -44.2962 1123.01 -41.102 1126.28 -40.1067C1138.15 -36.5275 1134.38 -41.8712 1133.25 -41.5361Z" fill="#C8102E"/>
<path d="M1168.33 294.801C1167.61 294.65 1166.97 294.08 1165.98 293.495C1169.94 289.073 1170.4 295.236 1168.33 294.801Z" fill="#C8102E"/>
<path d="M1165.4 270.883C1164.71 268.115 1169.37 268.528 1169.52 271.231C1169.62 273.365 1166.02 273.315 1165.4 270.883Z" fill="#C8102E"/>
<path d="M1228.96 19.0073C1231.93 21.3947 1232.79 16.8548 1237.17 15.6427C1237.42 15.5911 1237.97 13.8309 1236.34 13.3938C1234.31 12.8104 1234.64 15.6004 1230.69 14.4635C1228.7 13.89 1226.57 17.0954 1228.96 19.0073Z" fill="#C8102E"/>
<path d="M1137.24 218.062C1137.61 219.512 1133.5 218.372 1133.72 215.927C1133.78 215.388 1135.62 211.786 1137.24 218.062Z" fill="#C8102E"/>
<path d="M1110.7 198.191C1106.87 196.767 1108.93 192.63 1112.37 193.749C1116.17 194.967 1115.35 199.955 1110.7 198.191Z" fill="#C8102E"/>
<path d="M1100.3 236.984C1101.18 238.889 1097.99 240.577 1097.03 238.214C1096.25 236.255 1098.75 233.587 1100.3 236.984Z" fill="#C8102E"/>
</g>
<defs>
<clipPath id="clip0_6159_114839">
<rect width="1440" height="268" fill="white"/>
</clipPath>
</defs>
</svg>
