<svg width="224" height="100" viewBox="0 0 224 100" fill="none" xmlns="http://www.w3.org/2000/svg">
<path d="M68.22 32.2833C67.997 32.3221 67.8341 32.072 67.997 31.9814C68.3657 31.7701 68.6444 32.21 68.22 32.2833ZM80.3738 33.5341C80.3524 33.4909 80.3738 33.4263 80.3824 33.3314C80.4682 33.3659 80.5325 33.3788 80.5667 33.4133C80.6311 33.4823 80.4467 33.6721 80.3738 33.5341ZM96.0131 40.5511C96.1417 40.7754 95.7687 40.9867 95.7001 40.7409C95.653 40.5727 95.9059 40.3657 96.0131 40.5511ZM72.9572 40.797C72.6314 40.5253 72.8372 39.9689 73.1844 40.4994C73.3173 40.8531 73.0987 40.9134 72.9572 40.797ZM77.33 37.42C77.2871 37.062 77.9988 36.8895 77.9088 37.1569C77.7759 37.5623 77.3643 37.6831 77.33 37.42ZM82.9461 32.6758C82.8946 32.6542 82.8475 32.6327 82.7703 32.6025C82.8089 32.5421 82.8389 32.3955 82.989 32.5637C83.0018 32.5766 82.9632 32.637 82.9461 32.6758ZM88.0263 36.4798C87.9577 36.6609 88.0006 36.6221 87.8076 36.5833C87.9105 36.3978 87.8505 36.4194 88.0263 36.4798ZM61.7465 29.9242C62.0037 29.8983 62.1666 30.1183 62.0294 30.2045C61.6779 30.4331 61.3735 29.9587 61.7465 29.9242ZM63.0926 23.2564C63.4999 23.5842 64.0143 24.4727 63.4913 24.4123C63.1826 24.3778 62.5824 24.1492 62.6725 23.8689C62.7668 23.5583 62.8868 23.0926 63.0926 23.2564ZM62.9683 36.9801C63.1698 36.786 63.3541 37.0447 63.4441 37.1482C63.8686 38.0841 62.5439 37.3811 62.9683 36.9801ZM92.1719 34.7546C92.4806 34.6209 92.472 35.3627 92.0561 35.1255C91.9875 35.0004 92.0476 34.8107 92.1719 34.7546ZM73.2487 33.1632C73.4931 33.0812 73.7246 33.4952 73.4502 33.6246C73.1801 33.7497 73.0215 33.2408 73.2487 33.1632ZM82.9847 41.7501C82.8775 41.4741 83.4777 41.3965 83.2676 41.7717C83.2419 41.8191 83.0447 41.9011 82.9847 41.7501Z" fill="#A03137"/>
<path d="M63.9757 39.2271C62.8139 41.0256 60.9791 42.0779 59.1571 41.0557C55.9632 39.2659 54.8228 35.3325 54.96 34.5519C55.1358 33.5729 55.4744 32.7965 55.916 32.1884L46.3944 23.8689L28.916 26.4307L34.4249 30.1096C36.7185 27.6772 40.4739 26.2022 42.7675 27.1855C46.956 28.984 49.0353 34.8624 45.4813 37.489L67.8598 52.4202C68.5715 51.0961 69.7461 50.2465 71.3452 50.432C75.3408 50.8978 78.1488 54.4214 78.3332 55.2753C78.8948 57.8933 78.0031 59.7004 76.5283 60.7743C73.8618 67.4938 65.4205 88.6701 64.4602 90.1882L68.6444 88.9288L83.5034 56.2975L63.9757 39.2357V39.2271Z" fill="#A13137"/>
<path d="M68.1256 59.929C66.7838 57.6776 66.7581 54.4775 67.8641 52.4159L45.4856 37.4847C45.2198 37.6787 44.9282 37.8599 44.6024 38.0152C39.9595 40.2234 34.9007 38.8432 34.2191 38.1834C31.4239 35.4749 32.2899 32.3739 34.4292 30.1053L28.9203 26.4264C25.4563 30.6186 22.644 36.5057 20.4618 42.3151C23.0169 44.2689 24.1702 48.379 22.5797 50.5484C21.2421 52.3728 18.9271 53.589 16.7964 53.8348C15.4245 58.9327 14.7472 62.5382 14.7472 62.5382L42.1759 84.0682C42.6689 82.7614 43.282 81.8427 43.6121 81.6142C49.9741 77.1546 54.8914 86.1125 52.2506 89.7138C51.9033 90.1925 51.4832 90.6238 51.0202 91.012L56.0618 94.9669L64.4645 90.1753C65.4291 88.6614 73.866 67.4851 76.5326 60.7613C73.9303 62.6547 69.5146 62.245 68.1299 59.9203L68.1256 59.929ZM49.9441 56.8194C57.9738 51.1953 64.1772 62.4951 60.8462 67.0409C57.4637 71.6557 49.1167 73.204 47.6119 67.9207C46.1372 62.7453 48.9967 57.4835 49.9441 56.8194ZM37.0529 62.1889C34.5964 65.54 28.5344 66.6657 27.4369 62.8272C26.3652 59.0664 28.4444 55.2452 29.1303 54.7621C34.965 50.6735 39.4708 58.8852 37.0486 62.1889H37.0529Z" fill="#E6BB95"/>
<path d="M83.3876 46.4684C83.6191 46.7617 83.915 46.4641 83.7692 46.2269C83.4948 45.787 83.1218 46.132 83.3876 46.4684ZM104.506 38.7268C105.102 38.5111 105.689 38.9855 105.389 39.3047C104.793 39.943 103.901 38.9467 104.506 38.7268ZM90.9972 42.8844C90.9158 42.7291 91.2159 42.6429 91.3273 42.7766C91.3616 42.8154 91.293 42.9405 91.2502 43.1087C91.1216 43.0009 91.0315 42.9534 90.9972 42.8844ZM14.2456 78.7245C13.7954 78.8022 13.4739 78.3062 13.7997 78.1164C14.5414 77.6981 15.0944 78.5779 14.2456 78.7245ZM82.1487 49.6513C82.0758 49.0734 82.9804 49.5004 82.4831 49.8325C82.363 49.9144 82.1658 49.8066 82.1487 49.6513ZM80.0437 49.7246C79.8036 49.7333 79.7693 49.3408 80.0437 49.2589C80.3652 49.1597 80.3395 49.716 80.0437 49.7246ZM46.9517 57.2248C47.1318 57.3412 47.269 57.3973 47.3547 57.4965C47.5176 57.6906 46.6816 58.1865 46.9517 57.2248ZM38.5448 81.2131C38.5019 81.1268 38.5448 80.9974 38.5576 80.8076C38.7291 80.881 38.8577 80.8982 38.9263 80.9759C39.0506 81.1139 38.6862 81.4977 38.5448 81.2131ZM34.8707 67.649C34.9865 68.0415 34.4249 68.1191 34.3348 67.7612C34.232 67.3557 34.7807 67.3428 34.8707 67.649ZM0.775554 46.4813C0.479746 45.7956 0.981334 45.9854 1.0585 45.0754C1.11852 44.368 2.07454 44.6139 1.79588 45.1228C1.60296 45.4678 1.30715 45.4937 1.71443 45.7266C2.99627 46.4512 1.29858 47.6933 0.77984 46.4813H0.775554ZM28.2386 53.658C28.1743 53.7874 28.1529 53.8909 28.0929 53.9426C27.8271 54.1755 27.5956 53.5976 27.9299 53.5674C28.0114 53.5588 28.1014 53.6149 28.2386 53.658ZM69.8362 95.2515C70.0934 95.7044 69.3518 96.127 69.2103 95.6311C69.116 95.2947 69.6218 94.8806 69.8362 95.2515ZM23.7286 95.7475C23.0727 95.2084 23.4928 94.0914 24.1873 95.1567C24.4531 95.864 24.0158 95.9847 23.7286 95.7475ZM36.9585 67.166C37.5244 66.9417 38.2104 67.925 37.5973 67.9035C37.3015 67.8949 36.8042 67.511 36.9585 67.166ZM32.4743 89.0022C32.3885 88.2862 33.8075 87.9369 33.6318 88.4803C33.366 89.2868 32.5386 89.5326 32.4743 89.0022ZM19.6344 67.7612C20.3847 67.7137 19.6087 68.779 19.0514 68.7272C18.4083 68.6712 18.9056 67.8086 19.6344 67.7612ZM80.7768 76.2188C80.6353 76.4171 79.8937 76.2015 80.3052 75.6408C80.421 75.671 80.5753 75.6753 80.6825 75.7486C80.8454 75.8608 80.8754 76.085 80.7811 76.2144L80.7768 76.2188ZM96.2017 48.1936C96.0946 48.2626 96.0003 48.2065 95.9702 48.0944C95.9531 48.0383 96.0002 47.9607 96.0388 47.827C96.1503 47.9089 96.4461 48.0383 96.206 48.1979L96.2017 48.1936ZM55.8646 67.6533C56.2075 68.3175 55.3501 69.0076 55.243 68.503C55.1015 67.856 55.6802 67.2997 55.8646 67.6533ZM43.6935 79.5224C43.5949 79.4793 43.4963 79.4362 43.342 79.3715C43.4192 79.2464 43.4749 78.9574 43.775 79.2981C43.8007 79.3283 43.7236 79.4448 43.6935 79.5224ZM53.8539 87.1304C53.7167 87.4969 53.8068 87.4107 53.4209 87.3374C53.6224 86.9708 53.511 87.0096 53.8539 87.1304ZM94.5555 52.0019C94.8385 52.0536 94.6112 52.6488 94.1697 52.6013C93.8953 52.5712 94.1139 51.9242 94.5555 52.0019ZM109.586 56.0171C108.077 56.0732 108.068 54.5421 109.016 54.6198C110.122 54.706 110.486 55.9826 109.586 56.0171ZM96.9134 67.1832C96.8405 66.7174 97.1149 66.7347 96.7762 66.3206C96.4675 65.9454 96.9691 65.4883 97.2435 65.7082C97.535 65.9454 97.2821 66.2948 97.2735 66.4802C97.2435 67.0237 97.5093 67.1013 97.8351 67.5369C98.2338 68.0674 97.0463 68.0027 96.9177 67.1832H96.9134ZM57.7766 71.2373C57.4422 72.0309 57.1078 71.2029 57.4765 71.1597C57.558 71.1511 57.648 71.1985 57.7766 71.2373ZM108.433 67.0021C107.815 67.2997 107.7 67.2134 107.833 67.7655C107.858 67.8733 107.858 67.9596 107.841 68.0329C107.683 68.0933 107.52 68.1493 107.365 68.214C107.365 68.214 107.361 68.214 107.361 68.2097C106.735 67.4377 106.649 67.1919 106.761 67.0366C107.318 66.2473 106.868 65.4926 107.485 65.7082C108.831 66.1783 108.771 66.8425 108.437 67.0021H108.433ZM49.0438 30.735C49.5669 30.9722 49.7598 30.5452 50.0084 30.8989C50.1113 31.0412 49.8069 31.2827 49.734 31.2224C49.2968 30.8773 48.7909 31.4725 48.7137 31.0973C48.6751 30.9118 48.8123 30.6315 49.0438 30.7393V30.735ZM1.29429 74.0407C1.80874 73.989 2.13456 74.4289 1.86447 74.6057C1.16139 75.0586 0.552624 74.1184 1.29429 74.0407ZM34.9779 58.1909C34.9565 58.1736 34.9993 58.0658 35.0294 57.9407C35.1365 57.9968 35.2308 58.0227 35.2823 58.083C35.3166 58.1218 35.2566 58.3979 34.9822 58.1865L34.9779 58.1909ZM32.7143 58.4151C33.6103 58.1736 33.3102 59.6702 32.6886 59.0232C32.4743 58.8033 32.4271 58.4928 32.7143 58.4151ZM53.5367 44.8683C53.9783 45.0754 53.7082 45.2996 53.5967 45.3255C53.2966 45.3988 53.1508 45.0193 53.5367 44.8683ZM37.4258 57.5094C37.5844 57.9407 37.0057 58.1607 36.8985 57.7509C36.7956 57.3542 37.2972 57.1644 37.4258 57.5094ZM57.6051 37.0706C57.8881 36.7946 58.1968 37.8771 57.7037 37.7434C57.4379 37.6744 57.3436 37.3251 57.6051 37.0706ZM3.98658 60.701C4.80113 61.3565 5.82574 63.1334 4.78827 63.0127C4.17093 62.9437 2.97483 62.4908 3.14631 61.9301C3.33923 61.3134 3.57931 60.3732 3.98658 60.701ZM13.461 33.3659C13.7225 32.9346 14.4857 32.982 14.4857 33.6678C14.4857 35.091 12.9423 34.2241 13.461 33.3659ZM60.4732 54.361C59.903 54.3136 59.7101 53.5761 60.6618 53.3C61.5364 53.0456 61.3778 54.4386 60.4732 54.361ZM3.74222 88.1525C4.1495 87.7644 4.51389 88.2819 4.69824 88.4846C5.54708 90.3564 2.90195 88.9547 3.74222 88.1525ZM62.1452 83.7016C62.7582 83.4385 62.7496 84.9178 61.9094 84.4391C61.7679 84.189 61.8922 83.8094 62.1452 83.7016ZM24.2945 80.523C24.7789 80.3591 25.2505 81.1829 24.6975 81.446C24.1616 81.7004 23.8443 80.674 24.2945 80.523ZM87.4604 63.4957C87.5718 63.4828 87.6876 63.5302 87.8762 63.569C87.799 63.7286 87.7733 63.8666 87.6919 63.9227C87.3961 64.1297 87.1989 63.5259 87.4604 63.4957ZM42.9819 61.8741C42.9133 62.0034 42.8876 62.1069 42.8233 62.163C42.5446 62.4218 42.3131 61.8439 42.6604 61.8007C42.7461 61.7921 42.8404 61.8396 42.9819 61.8741ZM50.7587 57.4447C50.8401 57.4145 50.9344 57.4361 51.1059 57.4318C50.8015 58.1218 50.4972 57.5439 50.7587 57.4447ZM46.896 53.7141C46.8231 53.796 46.776 53.8823 46.7074 53.9168C46.6774 53.934 46.5402 53.8348 46.5487 53.8047C46.6131 53.4639 46.7374 53.6105 46.9003 53.7141H46.896ZM43.7707 97.6883C43.5564 97.132 44.7567 96.981 44.3366 97.7314C44.2852 97.8263 43.8865 97.9902 43.7707 97.6883ZM32.0198 44.9028C32.0327 44.3896 32.0327 43.8807 32.1227 43.6003C32.4871 42.4833 33.799 42.9663 33.7218 43.6219C33.6189 44.4759 32.9201 44.23 33.143 44.7648C33.2888 45.1142 33.456 45.4074 32.9844 45.5843C32.4228 45.7956 32.0027 45.5023 32.0155 44.9028H32.0198ZM44.2423 70.185C44.3366 69.7494 45.0526 69.5381 45.3912 70.0039C45.97 70.8104 44.1265 70.7155 44.2423 70.185ZM43.2262 52.0709C43.0848 52.5194 42.849 52.5755 42.6346 52.3943C42.1973 52.0234 43.4149 51.4843 43.2262 52.0709ZM110.263 46.0328C110.396 47.042 109.432 46.986 109.432 46.3347C109.432 45.9983 109.98 45.4031 110.263 46.0328ZM79.5979 36.3374C79.5936 36.2253 79.6493 36.1132 79.6922 35.945C80.4767 36.3461 79.615 36.6523 79.5979 36.3374ZM76.3911 37.7046C76.3483 37.7866 76.3268 37.8944 76.2582 37.9375C76.1425 38.0195 75.9667 37.9591 75.9538 37.8426C75.9453 37.765 76.0053 37.6788 76.0567 37.5407C76.1982 37.6097 76.2925 37.6572 76.3868 37.7046H76.3911ZM82.9246 34.9875C83.2933 34.7805 83.4176 35.4706 83.0318 35.5999C82.7317 35.6991 82.5945 35.173 82.9246 34.9875ZM122.392 35.4792C122.049 34.8926 121.358 34.9444 121.594 34.4182C121.778 33.9955 122.323 34.181 122.314 34.4958C122.302 35.1126 122.692 34.9573 122.687 35.2722C122.687 35.5223 122.413 35.5137 122.392 35.4792ZM40.1138 55.974C40.3282 56.3104 39.7794 56.6555 39.5737 56.2285C39.4065 55.8835 39.9123 55.6549 40.1138 55.974ZM75.1779 33.0165C74.6977 33.133 74.8006 32.1324 75.1221 32.3782C75.3879 32.5809 75.3537 32.9734 75.1779 33.0165ZM39.6723 27.0087C39.5436 26.8016 39.9081 26.4609 40.191 26.5213C40.8598 26.6679 39.9681 27.4831 39.6723 27.0087ZM64.9189 45.4635C64.4645 44.5837 66.0978 44.5406 66.0507 45.7352C66.025 46.3132 65.309 46.2096 64.9189 45.4635ZM74.2862 35.0565C74.0675 35.0091 74.0418 34.677 74.3676 34.6468C74.6806 35.0177 74.3333 35.0651 74.2862 35.0565ZM21.0235 46.559C21.345 47.1844 20.4833 47.4992 20.1789 46.8695C19.9388 46.3692 20.7534 46.0328 21.0235 46.559ZM73.1415 61.5204C72.8714 61.6325 72.6185 61.1322 73.1158 60.9295C73.4845 61.1969 73.3302 61.4428 73.1415 61.5204ZM36.8899 37.6615C36.6027 38.0324 36.4269 37.7736 36.4227 37.627C36.4141 37.3812 36.7871 37.3035 36.8899 37.6615Z" fill="#A03137"/>
<path d="M172.366 18.0853C166.527 21.9841 157.773 38.041 158.759 45.58C159.745 53.1189 169.507 57.7768 174.745 53.5071C179.984 49.2373 179.843 45.4161 179.843 45.4161L188.16 50.2034C188.16 50.2034 196.365 37.6442 195.829 36.704C195.293 35.7638 186.415 32.1022 186.415 32.1022C186.415 32.1022 193.133 28.0136 190.063 22.9545C186.994 17.8955 178.205 14.1907 172.366 18.0896V18.0853ZM175.826 44.1438C176.465 50.2249 171.397 50.4147 170.716 48.461C170.034 46.5072 172.52 43.7341 172.52 43.7341L175.826 44.1481V44.1438ZM184.34 25.9304C186.771 26.3143 189.36 28.6821 182.642 31.3647C182.642 31.3647 179.114 29.7603 179.174 29.191C179.234 28.6217 181.905 25.5466 184.34 25.9304Z" fill="#DB3339"/>
<path d="M196.901 35.8285C197.133 36.1218 197.428 35.8242 197.283 35.587C197.008 35.1471 196.635 35.4921 196.901 35.8285ZM204.511 32.2445C204.429 32.0892 204.729 32.003 204.841 32.1367C204.875 32.1755 204.806 32.3006 204.764 32.4688C204.635 32.361 204.545 32.3135 204.511 32.2445ZM127.759 68.0846C127.309 68.1623 126.987 67.6663 127.313 67.4765C128.055 67.0582 128.608 67.938 127.759 68.0846ZM195.662 39.0114C195.589 38.4335 196.494 38.8605 195.996 39.1926C195.876 39.2745 195.679 39.1667 195.662 39.0114ZM193.557 39.0848C193.317 39.0934 193.283 38.7009 193.557 38.6189C193.879 38.5198 193.853 39.0761 193.557 39.0848ZM160.465 46.5849C160.645 46.7013 160.782 46.7574 160.868 46.8566C161.031 47.0507 160.195 47.5466 160.465 46.5849ZM152.058 70.5731C152.015 70.4869 152.058 70.3575 152.071 70.1677C152.242 70.2411 152.371 70.2583 152.44 70.3359C152.564 70.474 152.2 70.8578 152.058 70.5731ZM148.384 57.0091C148.5 57.4016 147.938 57.4792 147.848 57.1212C147.745 56.7158 148.294 56.7029 148.384 57.0091ZM114.289 35.8414C113.993 35.1557 114.495 35.3455 114.572 34.4355C114.632 33.7281 115.588 33.974 115.309 34.4829C115.116 34.8279 114.821 34.8538 115.228 35.0867C116.51 35.8113 114.812 37.0534 114.293 35.8414H114.289ZM141.752 43.0181C141.688 43.1475 141.666 43.251 141.606 43.3028C141.34 43.5357 141.109 42.9577 141.443 42.9276C141.525 42.9189 141.615 42.975 141.752 43.0181ZM137.242 85.1076C136.586 84.5685 137.006 83.4515 137.701 84.5168C137.966 85.2241 137.529 85.3448 137.242 85.1076ZM150.472 56.5261C151.038 56.3018 151.724 57.2851 151.111 57.2636C150.815 57.255 150.318 56.8711 150.472 56.5261ZM145.988 78.3622C145.902 77.6463 147.321 77.297 147.145 77.8404C146.879 78.6469 146.052 78.8927 145.988 78.3622ZM215.88 21.1474C215.674 20.8154 216.231 20.4013 216.51 20.8067C216.797 21.2251 216.137 21.5658 215.88 21.1474ZM133.148 57.1212C133.898 57.0738 133.122 58.1391 132.565 58.0873C131.922 58.0313 132.419 57.1687 133.148 57.1212ZM194.29 65.5788C194.149 65.7772 193.407 65.5616 193.819 65.0009C193.934 65.0311 194.089 65.0354 194.196 65.1087C194.359 65.2209 194.389 65.4451 194.295 65.5745L194.29 65.5788ZM209.715 37.5537C209.608 37.6227 209.514 37.5666 209.484 37.4545C209.466 37.3984 209.514 37.3208 209.552 37.1871C209.664 37.269 209.96 37.3984 209.719 37.558L209.715 37.5537ZM169.378 57.0134C169.721 57.6776 168.864 58.3677 168.756 57.8631C168.615 57.2161 169.194 56.6598 169.378 57.0134ZM157.207 68.8825C157.108 68.8394 157.01 68.7962 156.855 68.7316C156.933 68.6065 156.988 68.3175 157.288 68.6582C157.314 68.6884 157.237 68.8049 157.207 68.8825ZM167.367 76.4904C167.23 76.857 167.32 76.7708 166.934 76.6975C167.136 76.3309 167.024 76.3697 167.367 76.4904ZM208.069 41.362C208.352 41.4137 208.125 42.0089 207.683 41.9615C207.409 41.9313 207.627 41.2843 208.069 41.362ZM223.099 45.3773C221.59 45.4333 221.582 43.9023 222.529 43.9799C223.635 44.0662 224 45.3428 223.099 45.3773ZM210.427 56.5433C210.354 56.0775 210.628 56.0948 210.29 55.6807C209.981 55.3055 210.483 54.8484 210.757 55.0683C211.048 55.3055 210.795 55.6549 210.787 55.8403C210.757 56.3838 211.023 56.4614 211.348 56.897C211.747 57.4275 210.56 57.3628 210.431 56.5433H210.427ZM171.29 60.5974C170.956 61.391 170.621 60.563 170.99 60.5198C171.071 60.5112 171.161 60.5586 171.29 60.5974ZM221.946 56.3622C221.329 56.6598 221.213 56.5735 221.346 57.1256C221.372 57.2334 221.372 57.3196 221.355 57.393C221.196 57.4533 221.033 57.5094 220.879 57.5741C220.879 57.5741 220.874 57.5741 220.874 57.5698C220.249 56.7978 220.163 56.552 220.274 56.3967C220.832 55.6074 220.381 54.8527 220.999 55.0683C222.345 55.5384 222.285 56.2026 221.95 56.3622H221.946ZM162.557 20.0951C163.08 20.3323 163.273 19.9053 163.522 20.259C163.625 20.4013 163.32 20.6428 163.247 20.5825C162.81 20.2374 162.304 20.8326 162.227 20.4574C162.189 20.2719 162.326 19.9916 162.557 20.0994V20.0951ZM211.173 15.1784C211.559 15.3164 211.589 15.5795 211.473 15.834C211.241 16.3601 210.603 15.5881 211.173 15.1784ZM114.808 63.4008C115.322 63.3491 115.648 63.789 115.378 63.9658C114.675 64.4187 114.066 63.4785 114.808 63.4008ZM148.491 47.551C148.47 47.5337 148.513 47.4259 148.543 47.3008C148.65 47.3569 148.744 47.3828 148.796 47.4431C148.83 47.482 148.77 47.758 148.496 47.5466L148.491 47.551ZM146.228 47.7752C147.124 47.5337 146.824 49.0303 146.202 48.3834C145.988 48.1634 145.94 47.8529 146.228 47.7752ZM167.05 34.2284C167.492 34.4355 167.222 34.6597 167.11 34.6856C166.81 34.7589 166.664 34.3794 167.05 34.2284ZM150.939 46.8695C151.098 47.3008 150.519 47.5208 150.412 47.111C150.309 46.7143 150.811 46.5245 150.939 46.8695ZM171.118 26.4307C171.401 26.1547 171.71 27.2372 171.217 27.1035C170.951 27.0345 170.857 26.6852 171.118 26.4307ZM117.5 50.0611C118.315 50.7166 119.339 52.4935 118.302 52.3728C117.684 52.3038 116.488 51.8509 116.66 51.2902C116.853 50.6735 117.093 49.7333 117.5 50.0611ZM173.987 43.7211C173.416 43.6737 173.223 42.9362 174.175 42.6601C175.05 42.4057 174.891 43.7987 173.987 43.7211ZM117.256 77.5126C117.663 77.1245 118.027 77.642 118.212 77.8447C119.06 79.7165 116.415 78.3148 117.256 77.5126ZM175.659 73.0617C176.272 72.7986 176.263 74.2779 175.423 73.7992C175.281 73.5491 175.406 73.1695 175.659 73.0617ZM137.808 69.8831C138.292 69.7192 138.764 70.543 138.211 70.8061C137.675 71.0605 137.358 70.034 137.808 69.8831ZM200.974 52.8558C201.085 52.8429 201.201 52.8903 201.39 52.9291C201.312 53.0887 201.287 53.2267 201.205 53.2828C200.909 53.4898 200.712 52.886 200.974 52.8558ZM156.495 51.2342C156.427 51.3635 156.401 51.4671 156.337 51.5231C156.058 51.7819 155.826 51.204 156.174 51.1608C156.259 51.1522 156.354 51.1996 156.495 51.2342ZM164.272 46.8048C164.354 46.7746 164.448 46.7962 164.619 46.7919C164.315 47.482 164.011 46.904 164.272 46.8048ZM160.409 43.0742C160.337 43.1561 160.289 43.2424 160.221 43.2769C160.191 43.2941 160.054 43.1949 160.062 43.1648C160.126 42.824 160.251 42.9707 160.414 43.0742H160.409ZM163.976 8.07938C163.638 7.44107 164.564 6.96234 164.915 7.57045C165.224 8.10525 164.281 8.6573 163.976 8.07938ZM145.533 34.2629C145.546 33.7497 145.546 33.2408 145.636 32.9604C146 31.8434 147.312 32.3265 147.235 32.982C147.132 33.836 146.434 33.5901 146.656 34.1249C146.802 34.4743 146.969 34.7675 146.498 34.9444C145.936 35.1557 145.516 34.8624 145.529 34.2629H145.533ZM185.395 19.6509C185.9 20.1382 185.287 20.1727 185.283 19.8838C185.283 19.8234 185.339 19.763 185.395 19.6509ZM199.383 14.5875C199.679 14.8291 199.679 14.7083 199.516 15.0361C199.199 14.8636 199.259 14.9628 199.383 14.5875ZM157.756 59.5451C157.85 59.1095 158.566 58.8982 158.905 59.364C159.483 60.1705 157.64 60.0756 157.756 59.5451ZM156.74 41.431C156.598 41.8795 156.362 41.9356 156.148 41.7544C155.711 41.3835 156.928 40.8444 156.74 41.431ZM216.785 6.69063C217.102 6.85452 217.063 6.72082 217.166 7.19524C217.175 7.24268 216.733 7.32031 216.686 7.00116C216.673 6.91921 216.737 6.82002 216.78 6.69063H216.785ZM223.777 35.3929C223.91 36.4021 222.945 36.3461 222.945 35.6948C222.945 35.3584 223.494 34.7632 223.777 35.3929ZM193.111 25.6975C193.107 25.5854 193.163 25.4733 193.206 25.3051C193.99 25.7062 193.128 26.0124 193.111 25.6975ZM189.904 27.0647C189.862 27.1467 189.84 27.2545 189.772 27.2976C189.656 27.3796 189.48 27.3192 189.467 27.2027C189.459 27.1251 189.519 27.0388 189.57 26.9008C189.712 26.9698 189.806 27.0173 189.9 27.0647H189.904ZM196.438 24.3476C196.807 24.1406 196.931 24.8307 196.545 24.96C196.245 25.0592 196.108 24.5331 196.438 24.3476ZM153.627 45.3341C153.842 45.6705 153.293 46.0156 153.087 45.5886C152.92 45.2436 153.426 45.015 153.627 45.3341ZM202.95 18.2233C202.757 18.3354 202.761 17.6928 203.126 17.6281C203.207 17.6152 203.795 17.7403 202.95 18.2233ZM204.781 13.6128C204.841 13.0047 205.514 13.1384 205.484 13.6818C205.454 14.2813 204.708 14.3546 204.781 13.6128ZM188.691 22.3766C188.211 22.4931 188.314 21.4925 188.636 21.7383C188.901 21.941 188.867 22.3335 188.691 22.3766ZM178.912 5.28464C178.162 5.87119 177.429 1.97664 178.981 4.63338C179.135 4.89647 179.165 5.08624 178.912 5.28464ZM178.432 34.8236C177.978 33.9438 179.611 33.9007 179.564 35.0953C179.538 35.6733 178.822 35.5697 178.432 34.8236ZM198.796 13.6128C198.56 13.8112 198.191 13.4187 198.492 13.1902C198.744 13.0004 199.225 13.2549 198.796 13.6128ZM187.8 24.4166C187.581 24.3692 187.555 24.0371 187.881 24.0069C188.194 24.3778 187.847 24.4252 187.8 24.4166ZM134.537 35.9191C134.858 36.5445 133.997 36.8593 133.692 36.2296C133.452 35.7293 134.267 35.3929 134.537 35.9191ZM186.655 50.8805C186.385 50.9926 186.132 50.4923 186.629 50.2896C186.998 50.557 186.844 50.8029 186.655 50.8805Z" fill="#D93339"/>
<path d="M134.391 86.7508C122.284 92.2196 111.717 93.0822 104.013 77.6981C99.2584 68.2011 104.557 53.9513 116.621 48.4049C129.071 42.686 143.351 47.3698 148.551 56.6469C153.752 65.9239 149.915 79.7338 134.391 86.7465V86.7508Z" fill="#A13137"/>
<path d="M133.285 84.0337C121.178 89.5025 110.611 90.365 102.907 74.981C98.1524 65.484 103.451 51.2342 115.515 45.6878C127.965 39.9689 142.245 44.6527 147.445 53.9297C152.645 63.2068 148.809 77.0166 133.285 84.0294V84.0337Z" fill="#DB3339"/>
<path d="M125.911 58.1003C125.911 58.1003 132.663 53.5502 134.833 52.1183C136.998 50.6864 138.069 49.7678 139.137 50.143C140.204 50.5182 141.37 51.1867 141.37 51.1867C141.37 51.1867 143.878 53.7745 144.513 55.2667C145.147 56.759 143.548 57.6647 143.548 57.6647C143.548 57.6647 128.655 61.4687 128.801 62.3183C128.947 63.1679 130.331 63.5173 133.144 65.0052C135.956 66.4932 141.559 69.0723 142.502 70.2885C143.445 71.5004 143.505 72.9064 142.772 73.8337C142.039 74.7653 139.347 76.9088 138.369 77.0511C137.392 77.1935 135.754 77.0943 135.754 77.0943C135.754 77.0943 127.322 65.2209 127.094 64.9362C126.867 64.6516 125.658 65.2381 125.808 65.6651C125.958 66.0921 129.165 78.979 128.946 79.7208C128.728 80.4626 126.49 82.3474 124.801 82.2784C123.112 82.2093 121.165 82.3862 120.634 81.5581C120.102 80.73 120.561 77.8965 120.561 77.8965C120.561 77.8965 121.903 68.3952 121.26 67.8345C120.617 67.2738 115.995 79.0437 115.043 80.4066C114.092 81.7694 112.939 82.4207 111.309 81.3942C109.68 80.3678 106.722 76.3869 106.722 76.3869L105.466 73.0876C105.466 73.0876 117.397 66.1179 117.667 64.8327C117.937 63.5475 106.418 65.2468 106.019 63.8278C105.62 62.4089 106.268 58.855 108.364 56.9444C110.461 55.0338 111.837 55.9007 112.613 56.4873C113.389 57.0781 118.447 60.9727 118.447 60.9727C118.447 60.9727 119.279 60.5198 118.859 59.42C118.439 58.3202 113.191 52.2477 113.191 52.2477C113.191 52.2477 113.213 51.1048 114.105 50.6994C114.996 50.294 117.346 48.2453 119.395 48.0081C121.44 47.7752 121.474 50.4277 122.074 52.5539C122.674 54.6802 122.121 57.462 122.816 57.173C123.51 56.884 124.132 49.7462 125.242 48.9052C126.353 48.0642 129.024 47.1714 130.644 47.5898C132.265 48.0081 131.502 49.4702 129.967 51.6784C128.432 53.8866 125.907 58.0917 125.907 58.0917L125.911 58.1003Z" fill="#E6BB95"/>
<path d="M146.755 63.8321C146.987 64.1254 147.282 63.8278 147.137 63.5906C146.862 63.1507 146.489 63.4957 146.755 63.8321ZM167.873 56.0905C168.469 55.8748 169.056 56.3492 168.756 56.6684C168.16 57.3067 167.269 56.3104 167.873 56.0905ZM154.365 60.2481C154.283 60.0928 154.583 60.0066 154.695 60.1403C154.729 60.1791 154.66 60.3042 154.618 60.4724C154.489 60.3645 154.399 60.3171 154.365 60.2481ZM77.6129 96.0882C77.1628 96.1659 76.8413 95.6699 77.1671 95.4801C77.9088 95.0618 78.4618 95.9416 77.6129 96.0882ZM145.516 67.015C145.443 66.4371 146.348 66.8641 145.85 67.1962C145.73 67.2781 145.533 67.1703 145.516 67.015ZM143.411 67.0883C143.171 67.097 143.137 66.7045 143.411 66.6226C143.733 66.5234 143.707 67.0797 143.411 67.0883ZM110.319 74.5885C110.499 74.7049 110.636 74.761 110.722 74.8602C110.885 75.0543 110.049 75.5502 110.319 74.5885ZM101.912 98.5768C101.869 98.4905 101.912 98.3611 101.925 98.1714C102.096 98.2447 102.225 98.2619 102.294 98.3396C102.418 98.4776 102.054 98.8614 101.912 98.5768ZM98.2381 85.0127C98.3539 85.4052 97.7923 85.4828 97.7022 85.1249C97.5993 84.7195 98.1481 84.7065 98.2381 85.0127ZM64.1429 63.8451C63.8471 63.1593 64.3487 63.3491 64.4259 62.439C64.4859 61.7317 65.4419 61.9776 65.1633 62.4865C64.9704 62.8315 64.6745 62.8574 65.0818 63.0903C66.3636 63.8149 64.666 65.057 64.1472 63.8451H64.1429ZM91.606 71.0217C91.5417 71.1511 91.5202 71.2546 91.4602 71.3064C91.1944 71.5393 90.9629 70.9613 91.2973 70.9311C91.3788 70.9225 91.4688 70.9786 91.606 71.0217ZM100.326 84.5297C100.892 84.3054 101.578 85.2887 100.965 85.2672C100.669 85.2586 100.172 84.8747 100.326 84.5297ZM165.734 49.151C165.528 48.8189 166.086 48.4049 166.364 48.8103C166.651 49.2287 165.991 49.5694 165.734 49.151ZM83.0018 85.1249C83.7521 85.0774 82.9761 86.1427 82.4188 86.091C81.7757 86.0349 82.273 85.1723 83.0018 85.1249ZM144.144 93.5824C144.003 93.7808 143.261 93.5652 143.673 93.0045C143.788 93.0347 143.943 93.039 144.05 93.1123C144.213 93.2245 144.243 93.4487 144.148 93.5781L144.144 93.5824ZM159.569 65.5573C159.462 65.6263 159.368 65.5702 159.338 65.4581C159.32 65.402 159.368 65.3244 159.406 65.1907C159.518 65.2726 159.813 65.402 159.573 65.5616L159.569 65.5573ZM119.232 85.017C119.575 85.6812 118.717 86.3713 118.61 85.8667C118.469 85.2197 119.048 84.6634 119.232 85.017ZM107.061 96.8861C106.962 96.843 106.864 96.7999 106.709 96.7352C106.787 96.6101 106.842 96.3211 107.142 96.6619C107.168 96.692 107.091 96.8085 107.061 96.8861ZM157.923 69.3655C158.206 69.4173 157.979 70.0125 157.537 69.9651C157.263 69.9349 157.481 69.2879 157.923 69.3655ZM172.953 73.3809C171.444 73.4369 171.436 71.9059 172.383 71.9835C173.489 72.0697 173.854 73.3464 172.953 73.3809ZM121.144 88.6011C120.81 89.3946 120.475 88.5666 120.844 88.5234C120.925 88.5148 121.015 88.5622 121.144 88.6011ZM94.9585 38.8173C94.4569 38.5801 94.5212 37.5752 95.25 38.33C95.3057 38.6621 95.2586 38.9597 94.9585 38.8173ZM112.411 48.0987C112.934 48.3359 113.127 47.9089 113.376 48.2626C113.479 48.4049 113.174 48.6464 113.101 48.586C112.664 48.241 112.158 48.8362 112.081 48.461C112.043 48.2755 112.18 47.9952 112.411 48.103V48.0987ZM161.027 43.182C161.413 43.32 161.443 43.5831 161.327 43.8376C161.095 44.3637 160.457 43.5917 161.027 43.182ZM64.6617 91.4044C65.1761 91.3527 65.5019 91.7926 65.2319 91.9694C64.5288 92.4223 63.92 91.4821 64.6617 91.4044ZM98.3453 75.5546C98.3238 75.5373 98.3667 75.4295 98.3967 75.3044C98.5039 75.3605 98.5982 75.3864 98.6497 75.4467C98.684 75.4856 98.624 75.7616 98.3496 75.5502L98.3453 75.5546ZM96.0817 75.7788C96.9777 75.5373 96.6776 77.0339 96.056 76.3869C95.8416 76.167 95.7945 75.8565 96.0817 75.7788ZM116.904 62.232C117.346 62.439 117.076 62.6633 116.964 62.6892C116.664 62.7625 116.518 62.383 116.904 62.232ZM100.793 74.8731C100.952 75.3044 100.373 75.5244 100.266 75.1146C100.163 74.7178 100.665 74.5281 100.793 74.8731ZM120.973 54.4343C121.255 54.1583 121.564 55.2408 121.071 55.1071C120.805 55.0381 120.711 54.6888 120.973 54.4343ZM67.354 78.0647C68.1685 78.7202 69.1931 80.4971 68.1556 80.3764C67.5383 80.3074 66.3422 79.8545 66.5137 79.2938C66.7066 78.6771 66.9467 77.7369 67.354 78.0647ZM76.8284 50.7296C77.0899 50.2983 77.853 50.3457 77.853 51.0314C77.853 52.4547 76.3097 51.5878 76.8284 50.7296ZM123.841 71.7247C123.27 71.6773 123.077 70.9398 124.029 70.6637C124.904 70.4093 124.745 71.8023 123.841 71.7247ZM87.6619 97.8867C88.1463 97.7228 88.6179 98.5466 88.0648 98.8097C87.529 99.0641 87.2117 98.0377 87.6619 97.8867ZM106.349 79.2378C106.281 79.3672 106.255 79.4707 106.191 79.5267C105.912 79.7855 105.68 79.2076 106.028 79.1645C106.113 79.1558 106.208 79.2033 106.349 79.2378ZM114.126 74.8084C114.208 74.7782 114.302 74.7998 114.473 74.7955C114.169 75.4855 113.865 74.9076 114.126 74.8084ZM110.263 71.0778C110.19 71.1597 110.143 71.246 110.075 71.2805C110.045 71.2977 109.908 71.1985 109.916 71.1683C109.98 70.8276 110.105 70.9743 110.268 71.0778H110.263ZM113.83 36.083C113.492 35.4447 114.418 34.9659 114.769 35.5741C115.078 36.1089 114.135 36.6609 113.83 36.083ZM95.3872 62.2665C95.4001 61.7533 95.4001 61.2444 95.4901 60.964C95.8545 59.847 97.1663 60.3301 97.0892 60.9856C96.9863 61.8396 96.2875 61.5937 96.5104 62.1285C96.6562 62.4779 96.8234 62.7711 96.3518 62.948C95.7902 63.1593 95.37 62.866 95.3829 62.2665H95.3872ZM135.249 47.6545C135.754 48.1418 135.141 48.1763 135.137 47.8874C135.137 47.827 135.193 47.7666 135.249 47.6545ZM149.237 42.5911C149.533 42.8327 149.533 42.7119 149.37 43.0397C149.053 42.8672 149.113 42.9664 149.237 42.5911ZM107.61 87.5487C107.704 87.1131 108.42 86.9018 108.759 87.3676C109.337 88.1741 107.494 88.0792 107.61 87.5487ZM106.594 69.4346C106.452 69.8831 106.216 69.9392 106.002 69.758C105.565 69.3871 106.782 68.848 106.594 69.4346ZM166.639 34.6942C166.956 34.8581 166.917 34.7244 167.02 35.1988C167.029 35.2463 166.587 35.3239 166.54 35.0047C166.527 34.9228 166.591 34.8236 166.634 34.6942H166.639ZM173.631 63.3965C173.764 64.4057 172.799 64.3496 172.799 63.6984C172.799 63.362 173.348 62.7668 173.631 63.3965ZM190.192 34.5131C189.977 35.3023 189.793 35.2851 189.977 35.5827C190.072 35.7293 189.45 36.4884 189.506 34.6295C189.523 34.1206 190.11 34.4786 190.192 34.5131ZM142.965 53.7011C142.961 53.589 143.017 53.4769 143.06 53.3087C143.844 53.7098 142.982 54.016 142.965 53.7011ZM139.759 55.0683C139.716 55.1503 139.694 55.2581 139.626 55.3012C139.51 55.3832 139.334 55.3228 139.321 55.2063C139.313 55.1287 139.373 55.0424 139.424 54.9044C139.566 54.9734 139.66 55.0209 139.754 55.0683H139.759ZM146.292 52.3512C146.661 52.1442 146.785 52.8342 146.399 52.9636C146.099 53.0628 145.962 52.5366 146.292 52.3512ZM185.759 52.8429C185.416 52.2563 184.726 52.3081 184.962 51.7819C185.146 51.3592 185.69 51.5447 185.682 51.8595C185.669 52.4763 186.059 52.321 186.055 52.6358C186.055 52.886 185.78 52.8774 185.759 52.8429ZM103.481 73.3377C103.696 73.6741 103.147 74.0192 102.941 73.5922C102.774 73.2472 103.28 73.0186 103.481 73.3377ZM152.804 46.2269C152.611 46.339 152.615 45.6964 152.98 45.6317C153.061 45.6188 153.649 45.7439 152.804 46.2269ZM154.635 41.6164C154.695 41.0083 155.368 41.142 155.338 41.6854C155.308 42.2849 154.562 42.3582 154.635 41.6164ZM138.545 50.3802C138.065 50.4967 138.168 49.4961 138.49 49.7419C138.755 49.9446 138.721 50.3371 138.545 50.3802ZM128.766 33.2882C128.016 33.8748 127.283 29.9802 128.835 32.637C128.989 32.9001 129.019 33.0898 128.766 33.2882ZM103.04 44.3723C102.911 44.1653 103.275 43.8246 103.558 43.885C104.227 44.0316 103.335 44.8468 103.04 44.3723ZM128.286 62.8272C127.832 61.9474 129.465 61.9042 129.418 63.0989C129.392 63.6768 128.676 63.5733 128.286 62.8272ZM148.65 41.6164C148.414 41.8148 148.045 41.4223 148.346 41.1937C148.598 41.004 149.079 41.2584 148.65 41.6164ZM137.654 52.4202C137.435 52.3728 137.409 52.0407 137.735 52.0105C138.048 52.3814 137.701 52.4288 137.654 52.4202ZM84.3908 63.9227C84.7124 64.5481 83.8507 64.8629 83.5463 64.2332C83.3062 63.7329 84.1208 63.3965 84.3908 63.9227ZM136.509 78.8841C136.239 78.9962 135.986 78.496 136.483 78.2933C136.852 78.5606 136.698 78.8065 136.509 78.8841ZM100.257 55.0252C99.9701 55.3961 99.7943 55.1373 99.79 54.9907C99.7815 54.7448 100.154 54.6672 100.257 55.0252Z" fill="#E5BA94"/>
<path d="M0.848444 43.8721C1.10567 44.3249 0.364003 44.7476 0.222529 44.2516C0.128213 43.9152 0.63409 43.5012 0.848444 43.8721ZM11.7891 24.8393C11.6476 25.0377 10.9059 24.822 11.3175 24.2613C11.4333 24.2915 11.5876 24.2959 11.6948 24.3692C11.8577 24.4813 11.8877 24.7056 11.7934 24.835L11.7891 24.8393Z" fill="#E5BA94"/>
<path d="M18.687 40.9867C18.9442 41.4396 18.2026 41.8622 18.0611 41.3663C17.9668 41.0299 18.4726 40.6158 18.687 40.9867ZM2.70475 32.8656C2.56756 33.2322 2.65759 33.1459 2.27175 33.0726C2.47324 32.706 2.36178 32.7448 2.70475 32.8656ZM10.996 29.4368C11.609 29.1737 11.6004 30.6531 10.7602 30.1743C10.6187 29.9242 10.743 29.5446 10.996 29.4368Z" fill="#D93339"/>
<path d="M114.966 63.8235C114.396 64.5696 114.31 64.2979 113.659 63.3404C113.174 61.6886 115.524 63.0903 114.966 63.8235ZM54.8485 95.7777C54.347 95.5405 54.4113 94.5356 55.1401 95.2903C55.1958 95.6224 55.1486 95.92 54.8485 95.7777ZM73.7203 93.0433C73.3816 92.405 74.3076 91.9263 74.6592 92.5344C74.9678 93.0692 74.0247 93.6213 73.7203 93.0433ZM109.127 99.5515C109.423 99.793 109.423 99.6722 109.26 100C108.943 99.8275 109.003 99.9267 109.127 99.5515ZM126.529 91.6546C126.846 91.8184 126.807 91.6848 126.91 92.1592C126.919 92.2066 126.477 92.2842 126.43 91.9651C126.417 91.8831 126.481 91.7839 126.524 91.6546H126.529ZM108.939 82.1705C109.59 81.8428 109.98 82.4638 109.646 82.6104C109.093 82.852 108.621 82.3172 108.939 82.1705ZM114.525 98.5768C114.585 97.9687 115.258 98.1024 115.228 98.6458C115.198 99.2453 114.452 99.3186 114.525 98.5768ZM88.6565 90.2486C87.9062 90.8351 87.1731 86.9406 88.7251 89.5973C88.8794 89.8604 88.9094 90.0502 88.6565 90.2486ZM108.54 98.5768C108.304 98.7752 107.935 98.3827 108.236 98.1541C108.489 97.9643 108.969 98.2188 108.54 98.5768ZM68.8544 83.4472C68.4214 83.1409 68.7215 82.2352 69.1974 82.4552C69.8233 82.7485 69.3346 83.7836 68.8544 83.4472ZM92.9178 74.7179C92.4591 73.9286 93.831 72.9754 93.8096 73.6655C93.7881 74.3987 93.2437 75.2785 92.9178 74.7179Z" fill="#D93339"/>
<path d="M166.308 3.75787C166.54 4.05115 166.836 3.75356 166.69 3.51635C166.416 3.07643 166.043 3.42146 166.308 3.75787ZM173.918 0.173858C173.837 0.0185944 174.137 -0.0676631 174.248 0.0660366C174.282 0.104853 174.214 0.229929 174.171 0.398132C174.042 0.29031 173.952 0.242865 173.918 0.173858ZM97.1663 36.014C96.7162 36.0916 96.3947 35.5956 96.7205 35.4059C97.4621 34.9875 98.0152 35.8673 97.1663 36.014ZM165.069 6.94078C164.997 6.36285 165.901 6.78982 165.404 7.12192C165.284 7.20386 165.087 7.09605 165.069 6.94078ZM162.964 7.0141C162.724 7.02272 162.69 6.63026 162.964 6.54831C163.286 6.44912 163.26 7.00547 162.964 7.0141ZM121.466 38.5025C121.423 38.4163 121.466 38.2869 121.478 38.0971C121.65 38.1704 121.778 38.1877 121.847 38.2653C121.971 38.4033 121.607 38.7872 121.466 38.5025ZM152.757 52.541C153.014 52.9938 152.273 53.4165 152.131 52.9205C152.037 52.5841 152.543 52.17 152.757 52.541ZM106.649 53.0369C105.993 52.4978 106.414 51.3808 107.108 52.4461C107.374 53.1534 106.937 53.2742 106.649 53.0369ZM115.395 46.2916C115.309 45.5757 116.728 45.2263 116.553 45.7697C116.287 46.5763 115.459 46.8221 115.395 46.2916ZM163.698 33.5082C163.556 33.7066 162.814 33.4909 163.226 32.9303C163.342 32.9604 163.496 32.9647 163.603 33.0381C163.766 33.1502 163.796 33.3745 163.702 33.5039L163.698 33.5082ZM179.123 5.48302C179.015 5.55203 178.921 5.49596 178.891 5.38383C178.874 5.32776 178.921 5.25013 178.96 5.11643C179.071 5.19837 179.367 5.32776 179.127 5.48734L179.123 5.48302ZM126.614 36.8119C126.516 36.7687 126.417 36.7256 126.263 36.6609C126.34 36.5358 126.396 36.2469 126.696 36.5876C126.722 36.6178 126.644 36.7342 126.614 36.8119ZM136.775 44.4198C136.638 44.7864 136.728 44.7001 136.342 44.6268C136.543 44.2602 136.432 44.299 136.775 44.4198ZM177.476 9.29129C177.759 9.34305 177.532 9.93824 177.09 9.8908C176.816 9.86061 177.035 9.21366 177.476 9.29129ZM192.507 13.3066C190.998 13.3627 190.989 11.8316 191.937 11.9092C193.043 11.9955 193.407 13.2721 192.507 13.3066ZM179.834 24.4727C179.761 24.0069 180.036 24.0241 179.697 23.6101C179.388 23.2349 179.89 22.7777 180.164 22.9977C180.456 23.2349 180.203 23.5842 180.194 23.7697C180.164 24.3131 180.43 24.3907 180.756 24.8263C181.155 25.3568 179.967 25.2921 179.838 24.4727H179.834ZM191.354 24.2915C190.736 24.5891 190.62 24.5029 190.753 25.0549C190.779 25.1627 190.779 25.249 190.762 25.3223C190.603 25.3827 190.44 25.4388 190.286 25.5035C190.286 25.5035 190.282 25.5035 190.282 25.4992C189.656 24.7271 189.57 24.4813 189.682 24.326C190.239 23.5368 189.789 22.782 190.406 22.9977C191.752 23.4678 191.692 24.132 191.358 24.2915H191.354ZM86.663 45.442C87.0703 45.0538 87.4347 45.5713 87.619 45.774C88.4678 47.6458 85.8227 46.2442 86.663 45.442ZM145.066 40.9911C145.679 40.728 145.67 42.2073 144.83 41.7286C144.689 41.4784 144.813 41.0989 145.066 40.9911ZM107.215 37.8124C107.7 37.6485 108.171 38.4723 107.618 38.7354C107.082 38.9899 106.765 37.9634 107.215 37.8124ZM170.381 20.7852C170.493 20.7722 170.608 20.8197 170.797 20.8585C170.72 21.0181 170.694 21.1561 170.613 21.2121C170.317 21.4192 170.12 20.8153 170.381 20.7852ZM126.691 54.9778C126.477 54.4214 127.678 54.2704 127.257 55.0209C127.206 55.1158 126.807 55.2797 126.691 54.9778ZM193.184 3.32226C193.317 4.33148 192.352 4.27542 192.352 3.62417C192.352 3.28776 192.901 2.69258 193.184 3.32226Z" fill="#D93339"/>
<path d="M197.926 54.1885C197.497 54.7492 197.437 54.5465 196.944 53.8262C196.584 52.5884 198.341 53.6408 197.926 54.1885ZM129.727 96.9336C129.508 96.4203 129.881 96.5627 129.937 95.8812C129.98 95.3507 130.7 95.5362 130.49 95.9157C130.344 96.1745 130.121 96.1961 130.43 96.3686C131.394 96.912 130.117 97.8436 129.727 96.9336ZM152.847 78.138C152.47 77.9568 152.521 77.2064 153.066 77.7757C153.109 78.0258 153.07 78.2458 152.847 78.138ZM139.248 87.07C139.441 86.7465 140.02 86.781 140.016 87.2986C140.016 88.3681 138.858 87.7169 139.248 87.07ZM167.003 76.0807C166.75 75.602 167.445 75.2397 167.706 75.6969C167.938 76.098 167.23 76.512 167.003 76.0807ZM193.416 67.9294C193.904 67.6835 194.196 68.1493 193.947 68.2615C193.536 68.4426 193.18 68.0415 193.416 67.9294ZM178.209 73.9933C177.648 74.4332 177.099 71.5134 178.261 73.5059C178.377 73.7 178.402 73.8467 178.209 73.9933ZM144.929 96.9724C145.169 97.4425 144.521 97.6797 144.294 97.2053C144.114 96.8301 144.723 96.5756 144.929 96.9724ZM163.359 68.8954C163.033 68.6669 163.26 67.9854 163.616 68.1536C164.083 68.3736 163.719 69.1499 163.359 68.8954ZM181.403 62.3442C181.056 61.7533 182.089 61.0374 182.072 61.5549C182.055 62.1026 181.648 62.7625 181.403 62.3442Z" fill="#D93339"/>
</svg>
